<svg width="107" height="139" viewBox="0 0 107 139" fill="none" xmlns="http://www.w3.org/2000/svg">
<g id="Group 7">
<path id="Vector" d="M46.4109 61.4798H106.839V62.0248H46.4109V61.4798Z" fill="white"/>
<path id="Vector_2" d="M31.1207 67.4545H95.7361V67.9995H31.1207V67.4545Z" fill="white"/>
<path id="Vector_3" d="M64.4307 70.6129H106.112V71.1579H64.4307V70.6129Z" fill="white"/>
<path id="Vector_4" d="M46.3767 26.211L62.5151 22.1519L57.2177 1.15161L50.5316 9.59824L41.0816 5.21302L46.3767 26.211Z" fill="#B8BC6C"/>
<g id="Clip path group">
<mask id="mask0_1_676" style="mask-type:luminance" maskUnits="userSpaceOnUse" x="26" y="0" width="52" height="41">
<g id="ec90995687">
<path id="Vector_5" d="M26.0445 0H77.4176V40.9812H26.0445V0Z" fill="white"/>
</g>
</mask>
<g mask="url(#mask0_1_676)">
<g id="Group">
<path id="Vector_6" d="M46.3768 26.211L62.5153 22.1519L57.2179 1.15161L50.5317 9.59824L41.0817 5.21302L46.3768 26.211Z" stroke="#42240C" stroke-width="2.35238" stroke-miterlimit="10"/>
</g>
</g>
</g>
<path id="Vector_7" d="M79.0936 100.386L26.0924 113.722C25.7526 113.808 25.4083 113.859 25.0571 113.877C24.7059 113.895 24.357 113.879 24.0104 113.827C23.6638 113.776 23.324 113.692 22.9956 113.573C22.6649 113.457 22.348 113.309 22.0469 113.129C21.7459 112.949 21.4654 112.741 21.2055 112.506C20.9455 112.271 20.7106 112.014 20.5008 111.731C20.291 111.45 20.1109 111.152 19.9604 110.835C19.8099 110.518 19.6913 110.189 19.6069 109.85L1.92691 39.7544C1.84253 39.4146 1.79008 39.0703 1.77184 38.7214C1.75359 38.3702 1.77184 38.0213 1.82201 37.6746C1.87218 37.328 1.95655 36.9905 2.07513 36.6599C2.19371 36.3292 2.34194 36.0145 2.52209 35.7135C2.70224 35.4125 2.90976 35.132 3.14464 34.872C3.37952 34.6121 3.63721 34.3772 3.91998 34.1697C4.20047 33.9599 4.50149 33.7797 4.81846 33.6292C5.13544 33.4787 5.46382 33.3624 5.8036 33.2757L58.8048 19.9399C59.1446 19.8533 59.4912 19.8008 59.8402 19.7848C60.1913 19.7666 60.5402 19.7826 60.8869 19.835C61.2335 19.8852 61.5733 19.9696 61.9039 20.0859C62.2346 20.2044 62.5493 20.3527 62.8503 20.5328C63.1513 20.713 63.4318 20.9205 63.694 21.1554C63.954 21.3903 64.1889 21.6479 64.3964 21.9284C64.6062 22.2112 64.7864 22.5099 64.9369 22.8269C65.0874 23.1416 65.206 23.47 65.2926 23.8098L82.9703 93.905C83.057 94.2447 83.1072 94.5914 83.1254 94.9403C83.1436 95.2914 83.1277 95.6381 83.0752 95.9847C83.0251 96.3313 82.9407 96.6711 82.8221 97.0017C82.7058 97.3301 82.5553 97.6471 82.3751 97.9481C82.1973 98.2491 81.9875 98.5296 81.7526 98.7896C81.5177 99.0496 81.26 99.2822 80.9773 99.492C80.6968 99.7017 80.398 99.8819 80.0811 100.032C79.7641 100.181 79.4357 100.299 79.0936 100.386Z" fill="#E47047"/>
<g id="Clip path group_2">
<mask id="mask1_1_676" style="mask-type:luminance" maskUnits="userSpaceOnUse" x="0" y="4" width="98" height="125">
<g id="4f00d3fdc0">
<path id="Vector_8" d="M0 4.78656H97.85V128.549H0V4.78656Z" fill="white"/>
</g>
</mask>
<g mask="url(#mask1_1_676)">
<g id="Group_2">
<path id="Vector_9" d="M79.0937 100.386L26.0925 113.722C25.7527 113.808 25.4083 113.858 25.0571 113.877C24.706 113.895 24.3571 113.879 24.0104 113.827C23.6638 113.776 23.324 113.692 22.9957 113.573C22.665 113.457 22.348 113.309 22.047 113.129C21.746 112.949 21.4655 112.741 21.2055 112.506C20.9456 112.271 20.7107 112.014 20.5009 111.731C20.2911 111.45 20.1109 111.152 19.9604 110.835C19.8099 110.518 19.6914 110.189 19.607 109.85L1.92697 39.7544C1.8426 39.4146 1.79014 39.0703 1.7719 38.7214C1.75365 38.3702 1.77191 38.0213 1.82208 37.6747C1.87224 37.328 1.95661 36.9905 2.07519 36.6599C2.19378 36.3292 2.342 36.0145 2.52215 35.7135C2.70231 35.4125 2.90982 35.132 3.14471 34.872C3.37959 34.6121 3.63727 34.3772 3.92004 34.1697C4.20053 33.9599 4.50154 33.7797 4.81852 33.6292C5.1355 33.4787 5.46388 33.3624 5.80366 33.2758L58.8049 19.9399C59.1447 19.8533 59.4913 19.8008 59.8402 19.7849C60.1914 19.7666 60.5403 19.7826 60.8869 19.835C61.2335 19.8852 61.5733 19.9696 61.9039 20.0859C62.2346 20.2045 62.5493 20.3527 62.8503 20.5328C63.1513 20.713 63.4318 20.9205 63.6941 21.1554C63.954 21.3903 64.1889 21.648 64.3964 21.9284C64.6062 22.2112 64.7864 22.5099 64.9369 22.8269C65.0874 23.1416 65.206 23.47 65.2926 23.8098L82.9704 93.9049C83.057 94.2447 83.1072 94.5913 83.1254 94.9402C83.1437 95.2914 83.1277 95.638 83.0753 95.9847C83.0251 96.3313 82.9407 96.6711 82.8221 97.0017C82.7058 97.3301 82.5553 97.6471 82.3752 97.9481C82.1973 98.2491 81.9875 98.5296 81.7526 98.7895C81.5177 99.0495 81.2601 99.2821 80.9773 99.4919C80.6968 99.7017 80.3981 99.8819 80.0811 100.032C79.7641 100.181 79.4357 100.299 79.0937 100.386Z" stroke="#42240C" stroke-width="2.35237" stroke-miterlimit="10"/>
</g>
</g>
</g>
<path id="Vector_10" d="M83.4812 99.2844L30.4799 112.62C30.1402 112.707 29.7935 112.759 29.4446 112.775C29.0934 112.794 28.7445 112.778 28.3979 112.725C28.049 112.675 27.7115 112.591 27.3809 112.474C27.0502 112.356 26.7355 112.208 26.4322 112.027C26.1312 111.847 25.8507 111.64 25.5907 111.405C25.3308 111.17 25.0959 110.912 24.8861 110.632C24.6763 110.349 24.4961 110.05 24.3479 109.733C24.1974 109.419 24.0788 109.09 23.9922 108.75L6.31445 38.6552C6.22779 38.3154 6.17534 37.9688 6.15938 37.6199C6.14114 37.2687 6.1571 36.9221 6.20727 36.5755C6.25972 36.2289 6.34409 35.8891 6.4604 35.5584C6.57898 35.23 6.7272 34.9131 6.90736 34.6121C7.08751 34.311 7.29502 34.0305 7.52991 33.7706C7.76707 33.5106 8.02476 33.278 8.30525 33.0682C8.58802 32.8584 8.88675 32.6783 9.20373 32.5278C9.5207 32.3795 9.84908 32.261 10.1889 32.1743L63.1901 18.8385C63.5322 18.7518 63.8765 18.7016 64.2277 18.6834C64.5766 18.6652 64.9255 18.6811 65.2721 18.7336C65.621 18.7837 65.9585 18.8681 66.2892 18.9867C66.6198 19.103 66.9368 19.2512 67.2378 19.4314C67.5388 19.6115 67.8193 19.819 68.0793 20.0539C68.3393 20.2888 68.5742 20.5465 68.784 20.8293C68.9937 21.1098 69.1739 21.4085 69.3244 21.7255C69.4749 22.0424 69.5912 22.3708 69.6779 22.7106L87.3579 92.8058C87.4423 93.1456 87.4947 93.4899 87.5129 93.8388C87.5289 94.19 87.5129 94.5389 87.4628 94.8855C87.4103 95.2321 87.326 95.5696 87.2096 95.9003C87.0911 96.231 86.9428 96.5457 86.7627 96.8467C86.5825 97.1477 86.375 97.4282 86.1401 97.6881C85.9053 97.9481 85.6453 98.183 85.3648 98.3905C85.082 98.6003 84.7833 98.7805 84.4663 98.931C84.1493 99.0815 83.821 99.1978 83.4812 99.2844Z" fill="#F3E8DE"/>
<g id="Clip path group_3">
<mask id="mask2_1_676" style="mask-type:luminance" maskUnits="userSpaceOnUse" x="0" y="3" width="103" height="125">
<g id="11f7afcace">
<path id="Vector_11" d="M0 3.61902H102.283V127.381H0V3.61902Z" fill="white"/>
</g>
</mask>
<g mask="url(#mask2_1_676)">
<g id="Group_3">
<path id="Vector_12" d="M83.4812 99.2845L30.48 112.62C30.1402 112.707 29.7936 112.759 29.4447 112.775C29.0935 112.794 28.7446 112.778 28.398 112.725C28.0491 112.675 27.7116 112.591 27.3809 112.474C27.0503 112.356 26.7356 112.208 26.4323 112.027C26.1313 111.847 25.8508 111.64 25.5908 111.405C25.3308 111.17 25.096 110.912 24.8862 110.632C24.6764 110.349 24.4962 110.05 24.348 109.733C24.1975 109.419 24.0789 109.09 23.9922 108.75L6.31452 38.6553C6.22786 38.3155 6.17541 37.9689 6.15945 37.62C6.1412 37.2688 6.15717 36.9222 6.20733 36.5755C6.25978 36.2289 6.34416 35.8891 6.46046 35.5585C6.57904 35.2301 6.72727 34.9131 6.90742 34.6121C7.08757 34.3111 7.29509 34.0306 7.52998 33.7707C7.76714 33.5107 8.02482 33.2781 8.30531 33.0683C8.58808 32.8585 8.88681 32.6783 9.20379 32.5278C9.52076 32.3796 9.84915 32.261 10.1889 32.1744L63.1901 18.8385C63.5322 18.7519 63.8765 18.7017 64.2277 18.6835C64.5766 18.6652 64.9255 18.6812 65.2722 18.7336C65.6211 18.7838 65.9586 18.8682 66.2892 18.9868C66.6199 19.1031 66.9369 19.2513 67.2379 19.4314C67.5389 19.6116 67.8194 19.8191 68.0793 20.054C68.3393 20.2889 68.5742 20.5466 68.784 20.8293C68.9938 21.1098 69.1739 21.4085 69.3244 21.7255C69.4749 22.0425 69.5912 22.3709 69.6779 22.7107L87.3579 92.8058C87.4423 93.1456 87.4947 93.4899 87.513 93.8388C87.5289 94.19 87.513 94.5389 87.4628 94.8855C87.4104 95.2322 87.326 95.5697 87.2097 95.9003C87.0911 96.231 86.9429 96.5457 86.7627 96.8467C86.5826 97.1477 86.3751 97.4282 86.1402 97.6882C85.9053 97.9481 85.6453 98.183 85.3648 98.3905C85.0821 98.6003 84.7833 98.7805 84.4664 98.931C84.1494 99.0815 83.821 99.1978 83.4812 99.2845Z" stroke="#42240C" stroke-width="2.35237" stroke-miterlimit="10"/>
</g>
</g>
</g>
<path id="Vector_13" d="M87.1823 98.3518L34.181 111.688C33.8412 111.774 33.4946 111.824 33.1434 111.843C32.7945 111.861 32.4456 111.845 32.099 111.792C31.7501 111.742 31.4126 111.658 31.0819 111.539C30.7513 111.423 30.4343 111.275 30.1333 111.095C29.8323 110.915 29.5518 110.707 29.2918 110.472C29.0318 110.237 28.797 109.98 28.5872 109.697C28.3774 109.416 28.1972 109.118 28.0467 108.801C27.8962 108.484 27.7799 108.155 27.6932 107.815L10.0132 37.7203C9.92886 37.3805 9.87641 37.0361 9.85817 36.6872C9.84221 36.3361 9.85817 35.9871 9.90834 35.6405C9.96079 35.2939 10.0452 34.9564 10.1615 34.6257C10.28 34.2951 10.4283 33.9804 10.6084 33.6794C10.7886 33.3784 10.9961 33.0979 11.231 32.8379C11.4681 32.5779 11.7258 32.3431 12.0063 32.1355C12.2891 31.9257 12.5878 31.7456 12.9048 31.5951C13.2218 31.4446 13.5502 31.3283 13.8899 31.2416L66.8912 17.9058C67.231 17.8191 67.5776 17.7667 67.9288 17.7507C68.2777 17.7325 68.6266 17.7484 68.9732 17.8009C69.3221 17.8511 69.6596 17.9354 69.9903 18.0517C70.3209 18.1703 70.6379 18.3185 70.9389 18.4987C71.2399 18.6789 71.5204 18.8864 71.7804 19.1212C72.0403 19.3561 72.2752 19.6138 72.485 19.8943C72.6948 20.1771 72.875 20.4758 73.0255 20.7928C73.176 21.1075 73.2923 21.4359 73.3789 21.7756L91.0589 91.8708C91.1433 92.2106 91.1958 92.5572 91.214 92.9061C91.23 93.2573 91.214 93.6039 91.1638 93.9506C91.1114 94.2972 91.027 94.637 90.9107 94.9676C90.7921 95.296 90.6439 95.613 90.4638 95.914C90.2836 96.215 90.0761 96.4955 89.8412 96.7555C89.6063 97.0154 89.3464 97.248 89.0659 97.4578C88.7831 97.6676 88.4844 97.8478 88.1674 97.9983C87.8504 98.1465 87.522 98.2651 87.1823 98.3518Z" fill="#F3E8DE"/>
<g id="Clip path group_4">
<mask id="mask3_1_676" style="mask-type:luminance" maskUnits="userSpaceOnUse" x="0" y="3" width="103" height="124">
<g id="9ca0abfb9b">
<path id="Vector_14" d="M0 3.03522H102.283V126.798H0V3.03522Z" fill="white"/>
</g>
</mask>
<g mask="url(#mask3_1_676)">
<g id="Group_4">
<path id="Vector_15" d="M87.1823 98.3517L34.1811 111.688C33.8413 111.774 33.4947 111.824 33.1435 111.843C32.7946 111.861 32.4457 111.845 32.0991 111.792C31.7502 111.742 31.4127 111.658 31.082 111.539C30.7514 111.423 30.4344 111.275 30.1334 111.095C29.8324 110.914 29.5519 110.707 29.2919 110.472C29.0319 110.237 28.7971 109.98 28.5873 109.697C28.3775 109.416 28.1973 109.118 28.0468 108.801C27.8963 108.484 27.78 108.155 27.6934 107.815L10.0133 37.7203C9.92897 37.3805 9.87652 37.0362 9.85828 36.6873C9.84231 36.3361 9.85828 35.9872 9.90845 35.6406C9.9609 35.2939 10.0453 34.9564 10.1616 34.6258C10.2802 34.2951 10.4284 33.9804 10.6085 33.6794C10.7887 33.3784 10.9962 33.0979 11.2311 32.8379C11.4682 32.578 11.7259 32.3431 12.0064 32.1356C12.2892 31.9258 12.5879 31.7456 12.9049 31.5951C13.2219 31.4446 13.5503 31.3283 13.89 31.2416L66.8912 17.9058C67.231 17.8192 67.5777 17.7667 67.9288 17.7508C68.2777 17.7325 68.6266 17.7485 68.9733 17.8009C69.3222 17.8511 69.6597 17.9355 69.9903 18.0518C70.321 18.1703 70.638 18.3186 70.939 18.4987C71.24 18.6789 71.5205 18.8864 71.7804 19.1213C72.0404 19.3562 72.2753 19.6138 72.4851 19.8943C72.6949 20.1771 72.875 20.4758 73.0255 20.7928C73.176 21.1075 73.2924 21.4359 73.379 21.7757L91.059 91.8708C91.1434 92.2106 91.1958 92.5572 91.2141 92.9061C91.23 93.2573 91.2141 93.6039 91.1639 93.9505C91.1115 94.2972 91.0271 94.6369 90.9108 94.9676C90.7922 95.296 90.644 95.613 90.4638 95.914C90.2837 96.215 90.0762 96.4955 89.8413 96.7554C89.6064 97.0154 89.3464 97.248 89.0659 97.4578C88.7832 97.6676 88.4844 97.8478 88.1675 97.9983C87.8505 98.1465 87.5221 98.2651 87.1823 98.3517Z" stroke="#42240C" stroke-width="2.35237" stroke-miterlimit="10"/>
</g>
</g>
</g>
<path id="Vector_16" d="M90.8834 97.4213L37.8821 110.757C37.5424 110.844 37.1957 110.896 36.8468 110.912C36.4957 110.93 36.1468 110.915 35.8001 110.862C35.4535 110.812 35.1137 110.728 34.7831 110.611C34.4524 110.493 34.1377 110.344 33.8344 110.164C33.5334 109.984 33.2529 109.777 32.9929 109.542C32.733 109.307 32.4981 109.049 32.2883 108.769C32.0785 108.486 31.9006 108.187 31.7501 107.87C31.5996 107.555 31.481 107.227 31.3944 106.887L13.7167 36.7921C13.63 36.4523 13.5776 36.1057 13.5616 35.7568C13.5433 35.4056 13.5593 35.059 13.6095 34.7124C13.6619 34.3658 13.7463 34.026 13.8626 33.6953C13.9812 33.3669 14.1294 33.05 14.3096 32.749C14.4897 32.4479 14.6972 32.1675 14.9321 31.9075C15.1693 31.6475 15.427 31.4149 15.7075 31.2051C15.9902 30.9953 16.289 30.8152 16.6059 30.6647C16.9229 30.5164 17.2513 30.3979 17.5911 30.3112L70.5923 16.9754C70.9344 16.8887 71.2787 16.8385 71.6299 16.8203C71.9788 16.8021 72.3277 16.818 72.6743 16.8705C73.0232 16.9206 73.3607 17.005 73.6914 17.1236C74.0221 17.2399 74.339 17.3881 74.64 17.5683C74.9411 17.7484 75.2215 17.9559 75.4815 18.1908C75.7415 18.4257 75.9764 18.6834 76.1862 18.9662C76.396 19.2467 76.5761 19.5454 76.7266 19.8624C76.8771 20.1793 76.9934 20.5077 77.0801 20.8475L94.7601 90.9427C94.8445 91.2825 94.8969 91.6268 94.9152 91.9757C94.9311 92.3269 94.9152 92.6758 94.865 93.0224C94.8125 93.369 94.7282 93.7065 94.6119 94.0372C94.4933 94.3679 94.345 94.6826 94.1649 94.9836C93.9847 95.2846 93.7772 95.5651 93.5423 95.825C93.3075 96.085 93.0475 96.3199 92.767 96.5274C92.4842 96.7372 92.1855 96.9174 91.8685 97.0679C91.5516 97.2184 91.2232 97.3347 90.8834 97.4213Z" fill="#F3E8DE"/>
<g id="Clip path group_5">
<mask id="mask4_1_676" style="mask-type:luminance" maskUnits="userSpaceOnUse" x="0" y="1" width="103" height="125">
<g id="bf4ada18a6">
<path id="Vector_17" d="M0 1.86768H102.283V125.63H0V1.86768Z" fill="white"/>
</g>
</mask>
<g mask="url(#mask4_1_676)">
<g id="Group_5">
<path id="Vector_18" d="M90.8834 97.4214L37.8822 110.757C37.5424 110.844 37.1958 110.896 36.8469 110.912C36.4957 110.93 36.1468 110.915 35.8002 110.862C35.4536 110.812 35.1138 110.728 34.7831 110.611C34.4525 110.493 34.1378 110.344 33.8345 110.164C33.5334 109.984 33.253 109.777 32.993 109.542C32.733 109.307 32.4981 109.049 32.2884 108.769C32.0786 108.486 31.9007 108.187 31.7502 107.87C31.5997 107.555 31.4811 107.227 31.3944 106.887L13.7167 36.7922C13.63 36.4524 13.5776 36.1058 13.5616 35.7569C13.5434 35.4057 13.5594 35.0591 13.6095 34.7125C13.662 34.3658 13.7463 34.0261 13.8626 33.6954C13.9812 33.367 14.1295 33.05 14.3096 32.749C14.4898 32.448 14.6973 32.1675 14.9322 31.9076C15.1693 31.6476 15.427 31.415 15.7075 31.2052C15.9903 30.9954 16.289 30.8152 16.606 30.6647C16.9229 30.5165 17.2513 30.3979 17.5911 30.3113L70.5923 16.9754C70.9344 16.8888 71.2787 16.8386 71.6299 16.8204C71.9788 16.8021 72.3277 16.8181 72.6743 16.8705C73.0232 16.9207 73.3607 17.0051 73.6914 17.1237C74.0221 17.24 74.339 17.3882 74.64 17.5683C74.9411 17.7485 75.2215 17.956 75.4815 18.1909C75.7415 18.4258 75.9764 18.6835 76.1862 18.9662C76.396 19.2467 76.5761 19.5455 76.7266 19.8624C76.8771 20.1794 76.9934 20.5078 77.0801 20.8476L94.7601 90.9427C94.8445 91.2825 94.8969 91.6268 94.9152 91.9757C94.9311 92.3269 94.9152 92.6758 94.865 93.0224C94.8125 93.3691 94.7282 93.7066 94.6119 94.0372C94.4933 94.3679 94.3451 94.6826 94.1649 94.9836C93.9848 95.2846 93.7772 95.5651 93.5424 95.8251C93.3075 96.085 93.0475 96.3199 92.767 96.5274C92.4842 96.7372 92.1855 96.9174 91.8685 97.0679C91.5516 97.2184 91.2232 97.3347 90.8834 97.4214Z" stroke="#42240C" stroke-width="2.35237" stroke-miterlimit="10"/>
</g>
</g>
</g>
<path id="Vector_19" d="M91.9689 97.1477L42.0895 109.699C41.7565 109.783 41.4213 109.834 41.0815 109.85C40.7395 109.868 40.3997 109.852 40.0622 109.802C39.7247 109.751 39.3963 109.669 39.0748 109.555C38.7532 109.441 38.4454 109.295 38.1535 109.122C37.8593 108.946 37.5857 108.746 37.3326 108.515C37.0794 108.287 36.8514 108.037 36.6484 107.763C36.4455 107.489 36.2699 107.2 36.1239 106.892C35.978 106.584 35.8617 106.265 35.7796 105.934L18.0289 35.5561C17.9445 35.2254 17.8944 34.8902 17.8784 34.5482C17.8601 34.2084 17.8761 33.8686 17.9263 33.5334C17.9764 33.1959 18.0585 32.8652 18.1726 32.5437C18.2866 32.2244 18.4325 31.9166 18.6058 31.6247C18.7814 31.3305 18.9844 31.0591 19.2124 30.806C19.4405 30.5529 19.6936 30.3248 19.9672 30.1219C20.2409 29.9189 20.5305 29.7433 20.8406 29.5974C21.1485 29.4515 21.4678 29.3352 21.7984 29.2531L71.6778 16.7017C72.0084 16.6173 72.3459 16.5671 72.6857 16.5512C73.0278 16.5329 73.3653 16.5489 73.7051 16.5991C74.0426 16.6492 74.3709 16.7313 74.6925 16.8454C75.014 16.9594 75.3219 17.1053 75.6138 17.2786C75.9079 17.4542 76.1793 17.6549 76.4324 17.8852C76.6856 18.1133 76.9159 18.3641 77.1188 18.6378C77.3218 18.9114 77.4974 19.201 77.6433 19.5089C77.7893 19.8167 77.9056 20.136 77.9877 20.4666L95.7384 90.8446C95.8227 91.1753 95.8729 91.5105 95.8889 91.8525C95.9071 92.1923 95.8912 92.5321 95.841 92.8673C95.7908 93.2048 95.7087 93.5355 95.5947 93.8547C95.4807 94.1763 95.3347 94.4841 95.1614 94.776C94.9858 95.0679 94.7829 95.3416 94.5548 95.5947C94.3268 95.8478 94.0737 96.0759 93.8 96.2788C93.5264 96.4818 93.2368 96.6574 92.9266 96.8033C92.6188 96.9493 92.2995 97.0633 91.9689 97.1477Z" fill="#E47047"/>
<g id="Clip path group_6">
<mask id="mask5_1_676" style="mask-type:luminance" maskUnits="userSpaceOnUse" x="3" y="1" width="100" height="124">
<g id="83c7f2e7e5">
<path id="Vector_20" d="M3.27695 1.86768H102.283V124.462H3.27695V1.86768Z" fill="white"/>
</g>
</mask>
<g mask="url(#mask5_1_676)">
<g id="Group_6">
<path id="Vector_21" d="M91.9689 97.1478L42.0895 109.699C41.7566 109.784 41.4214 109.834 41.0816 109.85C40.7395 109.868 40.3998 109.852 40.0623 109.802C39.7248 109.752 39.3964 109.669 39.0748 109.555C38.7533 109.441 38.4454 109.295 38.1536 109.122C37.8594 108.947 37.5857 108.746 37.3326 108.516C37.0795 108.288 36.8514 108.037 36.6485 107.763C36.4455 107.489 36.2699 107.2 36.124 106.892C35.978 106.584 35.8617 106.265 35.7796 105.934L18.0289 35.5563C17.9446 35.2256 17.8944 34.8904 17.8784 34.5483C17.8602 34.2085 17.8762 33.8688 17.9263 33.5335C17.9765 33.196 18.0586 32.8654 18.1726 32.5438C18.2866 32.2246 18.4326 31.9167 18.6059 31.6248C18.7815 31.3307 18.9844 31.0593 19.2125 30.8062C19.4405 30.553 19.6936 30.325 19.9673 30.122C20.2409 29.9191 20.5306 29.7435 20.8407 29.5976C21.1485 29.4516 21.4678 29.3353 21.7985 29.2532L71.6778 16.7019C72.0085 16.6175 72.346 16.5673 72.6857 16.5513C73.0278 16.5331 73.3653 16.5491 73.7051 16.5992C74.0426 16.6494 74.371 16.7315 74.6925 16.8455C75.014 16.9595 75.3219 17.1055 75.6138 17.2788C75.908 17.4544 76.1793 17.6551 76.4324 17.8854C76.6856 18.1134 76.9159 18.3643 77.1188 18.6379C77.3218 18.9116 77.4974 19.2012 77.6433 19.509C77.7893 19.8169 77.9056 20.1361 77.9877 20.4668L95.7384 90.8447C95.8228 91.1754 95.8729 91.5106 95.8889 91.8527C95.9071 92.1924 95.8912 92.5322 95.841 92.8674C95.7908 93.2049 95.7087 93.5356 95.5947 93.8548C95.4807 94.1764 95.3348 94.4842 95.1614 94.7761C94.9859 95.068 94.7829 95.3417 94.5549 95.5948C94.3268 95.8479 94.0737 96.076 93.8 96.2789C93.5264 96.4819 93.2368 96.6575 92.9266 96.8034C92.6188 96.9494 92.2995 97.0634 91.9689 97.1478Z" stroke="#42240C" stroke-width="2.35237" stroke-miterlimit="10"/>
</g>
</g>
</g>
<path id="Vector_22" d="M58.3077 44.9719C57.5529 43.8796 57.4115 42.8762 58.611 41.9755C58.8915 41.7634 59.083 41.4213 59.286 41.1203C59.4844 40.8262 59.8036 40.4658 59.4274 40.158C59.0511 39.8501 58.7706 40.2104 58.5403 40.4978C58.3122 40.7828 58.1047 41.0816 57.8721 41.362C57.6669 41.6083 57.4411 41.8341 57.1584 42.1397C56.5358 41.1272 55.9589 40.1671 55.3568 39.2185C55.1379 38.8718 55.2816 38.605 55.4663 38.3291C55.8768 37.7157 56.4195 37.2277 57.0101 36.7967C57.7695 36.2448 58.595 35.7956 59.4889 35.5242C63.7259 34.2335 67.8124 34.5094 71.664 36.8104C72.1406 37.0954 72.4485 37.0772 72.8453 36.7579C73.477 36.2471 74.0881 35.718 74.6308 35.116C74.8862 34.8355 75.1873 34.5254 75.5544 34.8401C75.9672 35.1935 75.7163 35.6086 75.4313 35.9005C74.8634 36.4751 74.25 37.0065 73.6525 37.5515C73.5043 37.6883 73.315 37.7795 73.2398 38.0441C73.2968 38.1421 73.3652 38.2903 73.461 38.4135C74.0562 39.1592 74.1086 39.166 74.9091 38.564C75.429 38.1718 75.8919 37.7202 76.3115 37.2231C76.4689 37.0384 76.6148 36.8446 76.7858 36.6712C76.9363 36.5162 77.1347 36.4683 77.34 36.5618C77.5999 36.6827 77.6638 36.913 77.6182 37.1684C77.5612 37.499 77.3651 37.7658 77.1439 38.0053C76.5943 38.6005 76.047 39.2162 75.3469 39.6289C74.77 39.9733 74.7266 40.2948 75.0048 40.8832C76.5669 44.1898 76.7471 47.6719 76.1633 51.218C75.6525 54.3125 74.3002 56.9737 71.9149 59.0694C71.7963 59.1743 71.696 59.2997 71.5979 59.4024C71.6025 59.8014 71.94 59.8493 72.1589 59.993C74.2751 61.3954 74.8292 65.2106 71.9286 66.8C70.9297 67.3473 69.9127 67.8376 68.8204 68.1683C68.6242 68.2275 68.4304 68.2891 68.2297 68.3188C67.7965 68.3826 67.2355 68.5582 67.0895 67.9927C66.9641 67.5047 67.5137 67.3815 67.8763 67.231C68.175 67.1056 68.492 67.0303 68.8021 66.9323C69.696 66.6518 70.558 66.3006 71.3607 65.8149C72.7997 64.9438 73.1987 63.5869 72.4759 62.0682C71.8396 60.7318 70.33 60.0796 68.8956 60.5517C67.9994 60.8436 67.2332 61.3863 66.4487 61.8926C64.9163 62.8823 63.3497 63.8195 61.6941 64.588C60.5767 65.1057 59.4182 65.4705 58.1663 65.2516C57.8106 65.19 57.5392 65.2858 57.2633 65.4842C56.9326 65.7237 56.5791 65.9243 56.1732 65.9996C55.8836 66.052 55.578 66.0566 55.4298 65.7556C55.2702 65.4386 55.48 65.2151 55.7285 65.0509C55.895 64.9392 56.0911 64.8731 56.2713 64.7773C56.7046 64.547 57.0877 64.2437 57.4001 63.8697C58.0181 63.1331 58.0204 62.2916 57.4343 61.5391C56.9828 60.9599 56.5176 60.8299 55.8357 61.1263C55.3135 61.3544 54.878 61.6965 54.4606 62.0955C52.0662 64.3759 49.3001 66.0041 46.0414 66.7156C44.6868 67.0098 43.3163 67.19 41.9389 66.9277C41.3551 66.816 40.9447 66.9779 40.5319 67.3724C40.0371 67.8467 39.4989 68.2823 38.947 68.6927C38.6506 68.9139 38.2492 69.0667 37.9847 68.6608C37.7703 68.3324 38.0075 68.0405 38.2583 67.8193C39.2572 66.9323 40.2719 66.0612 41.2685 65.1695C41.8454 64.6519 42.3152 64.0476 42.5911 63.3064C43.2479 61.53 42.3996 59.9291 40.5479 59.4959C38.215 58.9531 36.2037 59.7718 34.4409 61.1697C33.9233 61.5779 33.4718 62.1434 32.9518 62.6063C32.3612 63.1308 32.124 63.8856 31.9074 64.6336C31.823 64.9164 31.6429 65.1558 31.2826 65.0441C30.9679 64.9438 30.8424 64.6997 30.8789 64.3828C30.9838 63.4615 31.3875 62.6474 31.9986 61.9975C32.5436 61.4137 32.384 61.0283 32.0305 60.4354C29.6589 56.4766 28.6099 52.1735 29.3944 47.6172C30.416 41.6722 34.0305 37.7955 39.7862 36.1354C43.6811 35.0134 47.5829 35.3691 51.2681 37.2026C53.0901 38.1102 54.5336 39.41 55.5096 41.2343C56.6658 43.3962 57.603 45.6173 57.9679 48.055C58.0249 48.4382 58.0112 48.9991 58.5768 48.9125C59.1469 48.8235 59.0192 48.2306 58.8892 47.9114C58.3008 46.4816 58.9667 45.5922 60.0499 44.7872C60.4969 44.4543 60.8526 43.9914 61.2198 43.5626C61.3794 43.3802 61.4683 43.1111 61.2768 42.8968C61.0259 42.6163 60.7386 42.7577 60.5242 42.9492C60.1343 43.2981 59.7785 43.6903 59.4 44.0552C59.0557 44.3859 58.8025 44.826 58.31 44.9811L58.3077 44.9719ZM57.6304 50.73C57.4024 50.828 57.3545 50.8349 57.3294 50.8599C57.1698 51.0378 57.0079 51.218 56.8528 51.405C54.8757 53.7971 52.3239 55.309 49.3822 56.1733C46.3127 57.0763 43.4463 56.3922 40.7394 54.8461C40.0963 54.479 40.0918 54.3832 40.4954 53.6968C40.9059 52.999 41.3528 52.324 41.7588 51.6216C42.3882 50.5361 43.1247 49.5099 43.5808 48.331C43.7176 47.9798 43.8157 47.6172 43.501 47.3162C43.1817 47.0152 42.8169 47.1224 42.4862 47.3071C41.7816 47.7039 41.0792 48.1121 40.386 48.5317C39.2138 49.2409 38.0508 49.966 36.7989 50.7368C34.1513 46.1874 35.3964 42.11 37.9596 38.1512C37.8159 38.1307 37.7179 38.0805 37.6631 38.1102C34.2517 39.9186 31.7637 42.557 30.79 46.3425C29.6133 50.9147 30.4799 55.2611 32.6873 59.3704C33.2779 60.4673 33.2984 60.4445 34.3497 59.7923C36.1854 58.6498 38.1261 57.9338 40.3426 58.3009C43.6561 58.8459 45.0152 62.0864 43.07 64.8115C42.8534 65.1171 42.5022 65.3611 42.4611 65.9289C46.7848 65.9768 50.3126 64.3144 53.4116 61.5505C56.6361 58.6772 57.4525 54.8803 57.6304 50.73ZM58.7934 64.173C59.7284 64.2003 60.5539 63.8902 61.3589 63.5048C62.9688 62.734 64.4944 61.8128 65.9949 60.8504C67.1215 60.1275 68.2297 59.3568 69.6299 59.2655C69.9446 59.245 70.127 59.0489 70.3574 58.8801C73.3994 56.6408 74.8384 53.5417 75.2306 49.8748C75.2716 49.4985 75.3765 49.1177 75.2146 48.7437C74.9592 48.7916 74.8498 48.9672 74.7198 49.12C72.3801 51.8747 69.3061 53.1312 65.792 53.4847C65.5525 53.5075 65.3063 53.4938 65.0645 53.4779C64.1843 53.4186 64.1273 53.3456 64.4648 52.5566C64.9938 51.3297 65.5525 50.1143 66.0884 48.8897C66.2344 48.5567 66.3575 48.2147 66.467 47.8681C66.5536 47.5853 66.5445 47.298 66.28 47.1018C66.0155 46.9057 65.7304 46.9787 65.4796 47.1292C65.2378 47.2729 65.0144 47.4485 64.7909 47.6263C63.5595 48.6115 62.3258 49.6012 61.0966 50.5909C60.4193 51.1359 59.7307 51.1496 59.0329 50.6273C58.9986 50.6023 58.9006 50.6616 58.7911 50.6912C58.5791 53.788 58.1709 56.8551 56.5449 59.6076C58.7911 60.7022 59.2974 61.8561 58.7911 64.1707L58.7934 64.173ZM50.0252 43.1909C50.3696 42.3312 50.4608 41.5468 50.0709 40.7623C49.6011 39.8182 48.5544 39.3507 47.6285 39.7384C46.689 40.1329 46.0208 40.8262 45.77 41.8409C45.4758 43.029 45.9228 44.1054 46.8486 44.5364C47.7562 44.9583 48.958 44.6139 49.6672 43.7223C49.8177 43.533 49.9386 43.3209 50.0252 43.1887V43.1909ZM68.9754 41.1431C69.0484 40.9539 69.1305 40.7691 69.1921 40.5753C69.5364 39.5104 69.1419 38.5115 68.232 38.133C67.3267 37.7567 66.296 38.1626 65.7646 39.1113C65.5639 39.467 65.4271 39.8456 65.4089 40.2583C65.361 41.2754 66.0634 42.2765 66.9504 42.4612C67.8558 42.6482 68.5011 42.2286 68.9754 41.1431ZM49.934 47.9C49.5851 48.5294 49.6877 49.2386 49.9386 49.9432C50.2282 50.7528 50.8029 51.0082 51.5463 50.5703C52.7093 49.8862 53.3478 48.8235 53.366 47.4758C53.3797 46.3744 52.4334 45.8134 51.4209 46.2718C50.7276 46.5842 50.2556 47.1292 49.934 47.8977V47.9ZM70.4212 43.8249C70.3414 44.1236 70.2342 44.4725 70.159 44.826C70.0381 45.3984 70.2205 45.8636 70.7199 46.1783C71.2102 46.4861 71.8191 46.4109 72.2911 46.0072C72.9502 45.4394 73.2717 44.2194 72.9616 43.4577C72.6195 42.6186 71.8145 42.3837 71.0985 42.931C70.8112 43.1499 70.5535 43.4099 70.4189 43.8226L70.4212 43.8249Z" fill="#42240C"/>
<path id="Vector_23" d="M48.502 72.0928C48.7619 71.5957 48.8828 71.167 49.2203 70.8409C50.6113 69.4909 52.495 69.8215 53.3227 71.5797C53.6215 72.2137 53.7401 72.8818 53.7241 73.5842C53.6899 75.2717 52.9465 76.6445 51.7333 77.7323C50.2191 79.0891 48.3971 78.4666 47.941 76.4872C47.5784 74.9182 48.0117 73.4428 48.502 72.0928ZM52.479 74.0357C52.7276 73.1988 52.5565 72.5147 52.1985 71.8716C51.6854 70.9549 50.5019 70.9161 49.9272 71.8169C49.5966 72.3345 49.3685 72.9229 49.2317 73.68C50.4403 73.3128 51.4368 73.5979 52.4813 74.0357H52.479ZM51.3274 74.7746C50.6068 74.4279 49.2841 74.729 49.0059 75.3036C48.787 75.7506 49.1633 76.9068 49.608 77.1553C50.2328 77.5088 51.3662 76.9045 51.7584 76.0128C51.9613 75.5522 51.7629 74.9844 51.3274 74.7746Z" fill="#42240C"/>
<path id="Vector_24" d="M57.6305 50.7323C57.4526 54.8826 56.6362 58.6795 53.4117 61.5528C50.3103 64.3144 46.7848 65.9768 42.4612 65.9289C42.5022 65.3611 42.8534 65.1194 43.07 64.8138C45.0152 62.0887 43.6561 58.8482 40.3427 58.3009C38.1261 57.9361 36.1855 58.6544 34.3498 59.7946C33.2985 60.4468 33.278 60.4696 32.6873 59.3727C30.4799 55.2612 29.6134 50.917 30.79 46.3448C31.7638 42.557 34.2517 39.9208 37.6632 38.1102C37.7179 38.0828 37.816 38.1307 37.9596 38.1535C35.3965 42.1146 34.1514 46.1874 36.7989 50.7368C38.0509 49.9683 39.2139 49.2454 40.386 48.5339C41.0792 48.1121 41.7816 47.7062 42.4863 47.3094C42.8169 47.1224 43.1818 47.0175 43.501 47.3185C43.8157 47.6172 43.7177 47.9798 43.5809 48.3333C43.1225 49.5122 42.3859 50.5361 41.7588 51.6239C41.3529 52.324 40.9059 53.0013 40.4955 53.6991C40.0918 54.3855 40.0964 54.4813 40.7395 54.8484C43.4463 56.3968 46.3128 57.0764 49.3822 56.1756C52.3239 55.3113 54.8757 53.7994 56.8528 51.4073C57.0079 51.2225 57.1675 51.0424 57.3294 50.8622C57.3545 50.8349 57.4024 50.828 57.6305 50.7323Z" fill="white"/>
<path id="Vector_25" d="M58.7934 64.1753C59.2997 61.8584 58.7911 60.7045 56.5472 59.6099C58.1731 56.8597 58.5791 53.7903 58.7934 50.6958C58.9029 50.6639 58.9986 50.6068 59.0351 50.6319C59.7329 51.1519 60.4216 51.1405 61.0989 50.5932C62.328 49.6035 63.5595 48.6138 64.7932 47.6286C65.0144 47.453 65.2401 47.2774 65.4819 47.1315C65.7327 46.9833 66.0155 46.908 66.28 47.1041C66.5468 47.3025 66.5582 47.5899 66.467 47.8704C66.3598 48.217 66.2344 48.5613 66.0907 48.8943C65.5548 50.1188 64.9961 51.3343 64.4671 52.5589C64.1273 53.3502 64.1843 53.4231 65.0668 53.4802C65.3085 53.4961 65.5548 53.5121 65.7943 53.487C69.3084 53.1335 72.3824 51.877 74.7221 49.1246C74.852 48.9718 74.9592 48.7939 75.2169 48.746C75.3765 49.12 75.2716 49.5031 75.2329 49.8794C74.8406 53.544 73.3994 56.6431 70.3574 58.8847C70.1293 59.0512 69.9469 59.2496 69.6322 59.2701C68.232 59.3613 67.1215 60.1298 65.9972 60.8527C64.4967 61.8173 62.9688 62.7386 61.3589 63.5094C60.5562 63.8925 59.7284 64.2026 58.7957 64.1753H58.7934Z" fill="white"/>
<path id="Vector_26" d="M50.0253 43.1932C49.9387 43.3255 49.8155 43.5375 49.6673 43.7268C48.9581 44.6184 47.7563 44.9605 46.8487 44.5386C45.9229 44.1076 45.4782 43.0313 45.7701 41.8432C46.0209 40.8307 46.6913 40.1374 47.6286 39.7429C48.5544 39.353 49.6012 39.8205 50.0709 40.7668C50.4609 41.5513 50.3696 42.3358 50.0253 43.1955V43.1932Z" fill="white"/>
<path id="Vector_27" d="M68.9755 41.1431C68.5011 42.2309 67.8535 42.6527 66.9505 42.4635C66.0634 42.281 65.361 41.2776 65.4089 40.2583C65.4271 39.8478 65.564 39.467 65.7646 39.1135C66.296 38.1649 67.3267 37.7567 68.2321 38.1352C69.1419 38.5115 69.5364 39.5126 69.1921 40.5776C69.1305 40.7691 69.0484 40.9561 68.9755 41.1431Z" fill="white"/>
<path id="Vector_28" d="M49.9341 47.9023C50.2579 47.1315 50.7299 46.5888 51.4209 46.2763C52.4334 45.818 53.3798 46.3767 53.3661 47.4804C53.3501 48.8258 52.7116 49.8885 51.5463 50.5726C50.8029 51.0105 50.226 50.7551 49.9386 49.9478C49.6878 49.2409 49.5852 48.5339 49.9341 47.9046V47.9023Z" fill="white"/>
<path id="Vector_29" d="M70.419 43.8249C70.5512 43.4144 70.8112 43.1522 71.0985 42.9333C71.8146 42.386 72.6196 42.6208 72.9616 43.46C73.2695 44.2217 72.9479 45.444 72.2912 46.0095C71.8191 46.4154 71.2103 46.4907 70.72 46.1806C70.2183 45.8681 70.0381 45.4007 70.159 44.8283C70.232 44.4748 70.3414 44.1282 70.4212 43.8272L70.419 43.8249Z" fill="white"/>
<path id="Vector_30" d="M52.4813 74.0357C51.4369 73.5979 50.4426 73.3128 49.2317 73.68C49.3685 72.9252 49.5966 72.3345 49.9272 71.8169C50.5019 70.9161 51.6854 70.9549 52.1985 71.8716C52.5565 72.5147 52.7276 73.2011 52.479 74.0357H52.4813Z" fill="#F9A09E"/>
<path id="Vector_31" d="M51.3297 74.7746C51.7652 74.9821 51.9636 75.5499 51.7607 76.0106C51.3662 76.9022 50.2351 77.5042 49.6102 77.1553C49.1656 76.9068 48.7916 75.7506 49.0059 75.3014C49.2841 74.7267 50.6091 74.428 51.3297 74.7746Z" fill="#F9A09E"/>
<g id="Clip path group_7">
<mask id="mask6_1_676" style="mask-type:luminance" maskUnits="userSpaceOnUse" x="35" y="94" width="67" height="45">
<g id="eac61a545a">
<path id="Vector_32" d="M35.3851 94.6894H101.353V139H35.3851V94.6894Z" fill="white"/>
</g>
</mask>
<g mask="url(#mask6_1_676)">
<g id="Group_7">
<path id="Vector_33" d="M35.7818 119.11C35.8388 118.483 35.9688 117.877 36.1399 117.275C36.3588 116.483 36.8764 115.986 37.6404 115.731C38.2971 115.512 38.9744 115.414 39.6676 115.409C40.7714 115.402 41.85 115.571 42.9263 115.776C43.2524 115.838 43.5808 115.952 43.8613 115.589C44.3402 114.969 45.0152 114.928 45.7358 115.031C46.9581 115.204 47.9227 115.769 48.5293 116.857C48.7528 117.263 48.9786 117.345 49.4232 117.199C51.129 116.645 52.7435 115.915 54.2189 114.882C55.9634 113.66 57.6213 112.331 59.2085 110.912C59.359 110.778 59.5939 110.68 59.5505 110.383C58.3442 109.441 57.1287 108.502 55.9247 107.544L55.9406 107.537L53.6215 105.633C53.1882 105.232 52.7937 104.869 52.3946 104.513C51.991 104.155 51.6717 103.733 51.414 103.266C50.7824 102.117 51.1769 101.006 52.3878 100.514C52.796 100.347 53.2247 100.256 53.6694 100.265C53.9863 100.272 54.2645 100.356 54.4994 100.614C55.7582 101.98 57.3431 102.951 58.7797 104.101C58.8094 104.123 58.8345 104.144 58.8641 104.162L58.9029 104.267C58.9029 104.267 59.6417 104.78 60.205 105.156C60.205 105.156 60.2096 105.161 60.2118 105.161C61.0647 105.836 61.8264 106.436 62.6884 107.01C63.0806 105.989 63.0897 105.042 63.0487 103.943L62.9848 102.735C62.9962 102.65 62.9939 102.557 62.9803 102.454C62.9734 102.425 62.9711 102.395 62.9666 102.363C62.9575 102.311 62.9506 102.258 62.9392 102.208C62.7841 101.298 62.5196 100.429 62.0955 99.6059C61.8537 99.1339 61.5961 98.6664 61.352 98.1966C60.9005 97.3347 61.1514 96.5616 61.6827 95.8387C62.23 95.0976 63.0031 94.7783 63.8901 94.8262C64.4853 94.8581 64.8935 95.296 65.2219 95.7703C65.922 96.7874 66.3416 97.9298 66.6973 99.0974C66.857 99.6265 66.9961 100.16 67.1374 100.666C67.1466 100.666 67.1534 100.666 67.1602 100.669L67.4088 102.468C67.4134 102.559 67.4202 102.655 67.4385 102.757C67.7851 104.883 67.4499 106.921 66.5377 108.874C66.1614 109.674 66.1637 109.697 66.8706 110.208C70.2456 112.648 73.4884 115.25 76.5806 118.036C76.9044 118.328 77.1781 118.392 77.5817 118.253C78.3 118.011 79.0526 117.954 79.8097 118.043C80.7013 118.148 81.4356 118.679 81.5382 119.509C81.6158 120.146 81.9487 120.415 82.4253 120.67C82.7263 120.834 83.0045 121.044 83.2827 121.245C84.5552 122.155 85.8299 123.06 87.0887 123.988C87.4399 124.246 87.7044 124.28 88.0762 124.002C88.6326 123.587 89.2985 123.393 89.9826 123.261C91.141 123.039 92.2903 123.133 93.4351 123.334C96.8466 123.929 99.3072 125.733 100.518 129.03C101.223 130.957 101.184 132.914 100.322 134.786C99.8385 135.828 99.1772 136.788 98.6276 137.803C98.1943 138.603 97.549 138.979 96.6505 138.982C95.6175 138.982 94.5867 138.938 93.5605 138.806C90.986 138.48 88.4091 138.156 85.8345 137.823C83.8186 137.563 81.805 137.29 79.8005 136.948C78.3776 136.704 77.5817 135.926 77.1644 134.628C77.1097 134.448 77.0253 134.277 76.9842 134.097C76.706 132.914 76.4119 131.732 76.1679 130.542C75.7916 128.697 75.8076 126.813 75.6844 124.944C75.6548 124.522 75.5727 124.344 75.1326 124.289C74.4211 124.2 73.9422 123.765 73.6959 123.094C73.4633 122.465 73.347 121.806 73.5773 121.167C73.7255 120.754 73.6001 120.556 73.29 120.31C70.2935 117.943 67.1169 115.826 64.0247 113.589C63.7282 113.375 63.5458 113.332 63.2448 113.635C59.644 117.309 55.3751 119.867 50.4038 121.231C49.966 121.35 49.8383 121.55 49.7858 121.988C49.6536 123.108 49.161 123.614 48.0299 123.847C47.6696 123.922 47.6559 124.086 47.7084 124.367C47.7882 124.795 47.8612 125.229 47.9182 125.66C48.0345 126.558 48.0299 126.565 48.9147 126.531C50.8508 126.462 52.6249 126.98 54.26 127.999C55.8175 128.966 56.5974 130.373 56.6772 132.198C56.7547 133.903 56.4925 135.561 55.9931 137.185C55.6031 138.455 55.2793 138.69 53.9704 138.662C51.7789 138.617 49.6102 138.27 47.4279 138.113C44.8693 137.928 42.9879 136.738 41.5399 134.617C40.0599 132.451 38.4613 130.362 36.7054 128.401C36.3884 128.047 36.1877 127.634 36.1399 127.144C35.8662 124.472 35.5378 121.801 35.7864 119.106L35.7818 119.11Z" fill="#42240C"/>
</g>
</g>
</g>
<path id="Vector_34" d="M66.5719 102.675C66.3644 101.063 65.979 99.4874 65.3815 97.9709C65.174 97.4487 64.9369 96.9401 64.6359 96.4635C64.1273 95.6677 63.9061 95.5582 63.2152 95.7749C62.5288 95.9869 62.002 96.6414 61.9997 97.2776C61.9929 97.7086 62.23 98.0553 62.4375 98.3973C63.6553 100.42 64.0566 102.625 63.9517 104.951C63.9198 105.672 63.8081 106.381 63.6211 107.074C63.5048 107.492 63.5869 107.783 63.97 108.023C64.3098 108.237 64.6153 108.513 64.9437 108.75C65.434 109.099 65.4614 109.086 65.7396 108.518C66.6495 106.659 66.8364 104.691 66.5742 102.675H66.5719Z" fill="#42240C"/>
<path id="Vector_35" d="M78.4893 135.388C78.6763 135.721 79.0001 135.812 79.3376 135.908C80.6056 136.264 81.9031 136.469 83.2029 136.619C87.1116 137.073 90.9974 137.707 94.9174 138.067C95.3849 138.108 95.8524 138.12 96.3221 138.145C97.0792 138.184 97.6676 137.933 97.9686 137.187C98.0826 136.907 98.3289 136.685 98.3517 136.366C91.4763 136.013 84.667 135.281 77.8417 133.862C77.9192 134.435 78.218 134.904 78.4893 135.388Z" fill="#42240C"/>
<path id="Vector_36" d="M74.6286 123.033C75.0733 123.621 75.6822 123.468 76.2637 123.352C76.5373 123.295 76.795 123.165 77.0595 123.08C77.2488 123.021 77.4563 123.026 77.5612 123.213C77.6844 123.429 77.6091 123.637 77.413 123.792C77.3377 123.849 77.2602 123.92 77.1758 123.938C76.5282 124.086 76.4575 124.583 76.5145 125.101C76.6901 126.745 76.6536 128.41 76.9387 130.045C77.0116 130.474 77.1302 130.898 77.1986 131.329C77.3651 132.385 78.0127 132.946 79.0161 133.21C80.3798 133.568 81.7731 133.75 83.1642 133.953C87.3419 134.565 91.5287 135.091 95.7429 135.36C95.866 135.367 95.9915 135.365 96.1169 135.367V135.39C96.6802 135.397 97.2411 135.429 97.8067 135.411C98.8557 135.374 99.4258 134.957 99.7382 133.953C100.199 132.487 100.267 131 99.7678 129.532C98.9036 126.989 97.1727 125.311 94.6027 124.515C93.369 124.134 92.1011 123.963 90.8081 124.029C90.1445 124.061 89.506 124.202 88.9108 124.497C88.172 124.864 87.6657 125.429 87.4719 126.246C87.4285 126.426 87.3829 126.611 87.3487 126.793C87.3008 127.064 87.1823 127.299 86.879 127.272C86.4936 127.235 86.5164 126.914 86.5255 126.627C86.5392 126.216 86.6441 125.817 86.8242 125.454C86.9816 125.137 86.9109 124.95 86.6395 124.747C85.1002 123.621 83.5746 122.481 81.992 121.413C81.6181 121.163 81.39 121.185 81.2167 121.626C81.0548 122.041 80.7811 122.387 80.4094 122.638C80.1609 122.811 79.8758 122.873 79.6592 122.597C79.4517 122.335 79.6113 122.134 79.8393 121.979C80.3068 121.657 80.5189 121.174 80.674 120.661C80.9887 119.623 80.5166 118.932 79.4289 118.862C78.6695 118.814 77.9375 118.999 77.226 119.249C76.5168 119.503 75.876 119.899 75.258 120.321C74.998 120.497 74.7814 120.727 74.6081 120.992C74.2341 121.559 74.2409 122.515 74.6309 123.03L74.6286 123.033Z" fill="#42240C"/>
<path id="Vector_37" d="M73.6525 119.523C74.0813 119.856 74.4119 119.977 74.8634 119.555C75.1759 119.265 75.5932 119.085 76.0036 118.834C75.8212 118.408 75.502 118.244 75.2534 118.018C71.7484 114.853 67.9105 112.103 64.1569 109.248C60.8024 106.696 57.3727 104.24 54.1186 101.553C53.8586 101.339 53.61 101.116 53.211 101.157C52.0548 101.282 51.6557 102.121 52.3193 103.081C52.5884 103.464 52.9008 103.811 53.2475 104.13C55.2291 105.946 57.3339 107.612 59.4889 109.22C64.1706 112.709 69.037 115.943 73.6503 119.523H73.6525Z" fill="#42240C"/>
<path id="Vector_38" d="M49.4323 118.93C49.4711 119.081 49.5007 119.233 49.5372 119.386C49.8063 120.522 49.8154 120.552 50.9009 120.207C55.204 118.855 58.9758 116.597 62.2231 113.469C62.4238 113.275 62.5949 113.056 62.8708 112.746C62.0977 112.185 61.409 111.706 60.7454 111.195C60.4239 110.953 60.246 111.149 60.0294 111.341C58.8345 112.394 57.619 113.418 56.3557 114.392C54.3922 115.911 52.3193 117.22 49.9158 117.94C49.2248 118.146 49.2362 118.182 49.4323 118.93Z" fill="#42240C"/>
<path id="Vector_39" d="M55.4504 135.833C55.7468 134.423 55.9931 133.016 55.7377 131.566C55.5576 130.528 55.0901 129.666 54.2349 129.064C51.991 127.484 49.5555 126.88 46.8783 127.799C45.8681 128.143 44.9126 128.599 44.0757 129.281C43.8203 129.488 43.501 129.844 43.1977 129.484C42.8967 129.126 43.2091 128.782 43.501 128.531C44.3243 127.833 45.314 127.438 46.3151 127.076C47.1976 126.757 47.2021 126.757 47.0722 125.803C47.022 125.429 46.9673 125.06 46.8897 124.693C46.7301 123.958 46.5157 123.277 45.7997 122.836C45.3527 122.561 45.0243 122.116 44.7735 121.637C44.6572 121.414 44.5455 121.19 44.5797 120.926C44.6025 120.752 44.6937 120.629 44.851 120.574C45.0107 120.522 45.1726 120.574 45.2661 120.711C45.371 120.864 45.4348 121.044 45.5306 121.204C45.9753 121.947 46.5933 122.513 47.3914 122.852C48.1782 123.185 48.7483 122.873 48.8896 122.02C49.0128 121.274 48.8942 120.533 48.7528 119.79C48.5886 118.919 48.2215 118.127 47.8201 117.354C47.3298 116.419 46.5021 115.963 45.4736 115.858C44.7256 115.783 44.363 116.093 44.2878 116.839C44.2444 117.256 44.3653 117.644 44.5067 118.027C44.5911 118.257 44.6002 118.467 44.3585 118.59C44.078 118.732 43.8796 118.568 43.7336 118.342C43.5238 118.018 43.4531 117.642 43.4531 117.268C43.4531 116.878 43.2662 116.707 42.9104 116.638C41.7748 116.417 40.6323 116.262 39.4693 116.285C39.1135 116.292 38.9653 116.374 38.9037 116.8C38.6529 118.508 38.7988 120.235 38.6529 121.548C38.6278 123.315 38.6073 124.688 38.5845 126.061C38.5754 126.677 38.7806 127.224 39.1318 127.721C40.386 129.514 41.7109 131.253 43.0906 132.95C43.647 133.63 44.3585 134.033 45.2022 134.255C47.1109 134.752 49.0698 134.993 50.9876 135.427C52.235 135.709 53.4983 135.926 54.7548 136.177C55.0855 136.241 55.3592 136.286 55.4549 135.828L55.4504 135.833Z" fill="#42240C"/>
<path id="Vector_40" d="M36.5777 122.513C36.6576 124.009 36.8377 125.498 36.9608 126.991C36.9837 127.281 37.0543 127.52 37.2596 127.748C39.125 129.778 40.7965 131.976 42.338 134.248C43.72 136.289 45.5968 137.137 47.9387 137.301C49.779 137.429 51.6079 137.718 53.4528 137.771C53.7971 137.78 54.1414 137.766 54.4858 137.762C54.7822 137.757 54.9852 137.582 54.9875 137.31C54.992 137.018 54.6933 137.046 54.4881 137.005C51.7561 136.471 49.0265 135.94 46.2968 135.404C45.8978 135.326 45.501 135.23 45.1065 135.137C43.9366 134.863 42.9971 134.252 42.2491 133.304C40.988 131.71 39.7566 130.093 38.5685 128.444C37.9619 127.603 37.6769 126.695 37.7157 125.639C37.7955 123.454 37.8206 121.265 37.8365 119.076C37.8434 118.267 37.9962 117.466 38.0577 116.536C37.3097 116.734 37.0452 117.179 36.897 117.76C36.5048 119.325 36.4888 120.919 36.5755 122.513H36.5777Z" fill="#42240C"/>
<path id="Vector_41" d="M62.9574 102.363L62.978 102.73C62.9894 102.648 62.9871 102.557 62.9734 102.452C62.9666 102.422 62.9643 102.393 62.9597 102.363H62.9574Z" fill="#E47047"/>
<path id="Vector_42" d="M96.1169 135.388C96.6802 135.397 97.2434 135.427 97.8067 135.408C98.8557 135.372 99.4258 134.952 99.7382 133.951C100.197 132.487 100.267 130.998 99.7678 129.529C98.9036 126.987 97.1727 125.308 94.6027 124.513C93.3667 124.129 92.1011 123.961 90.8081 124.027C90.1445 124.061 89.506 124.198 88.9108 124.494C88.1742 124.861 87.6657 125.425 87.4719 126.243C87.4285 126.426 87.3829 126.606 87.351 126.793C87.3008 127.062 87.1845 127.299 86.879 127.272C86.4936 127.235 86.5164 126.912 86.5255 126.627C86.5392 126.214 86.6441 125.817 86.8242 125.454C86.9839 125.137 86.9155 124.948 86.6395 124.747C85.1002 123.621 83.5747 122.481 81.992 121.413C81.6181 121.163 81.39 121.185 81.2167 121.626C81.0548 122.041 80.7834 122.387 80.4117 122.64C80.1609 122.811 79.8781 122.873 79.6615 122.597C79.454 122.335 79.6136 122.134 79.8393 121.979C80.3068 121.657 80.5189 121.174 80.674 120.661C80.9887 119.626 80.5166 118.932 79.4289 118.862C78.6695 118.814 77.9375 118.999 77.226 119.249C76.5168 119.505 75.876 119.902 75.258 120.323C74.998 120.499 74.7814 120.729 74.6104 120.994C74.2364 121.562 74.2409 122.519 74.6309 123.033C75.0756 123.619 75.6844 123.466 76.2659 123.35C76.5396 123.295 76.795 123.163 77.0641 123.078C77.2534 123.019 77.4586 123.026 77.5635 123.21C77.6866 123.427 77.6091 123.635 77.4153 123.787C77.34 123.844 77.2625 123.913 77.1781 123.933C76.5305 124.082 76.4598 124.581 76.5168 125.096C76.6924 126.743 76.6559 128.408 76.9409 130.043C77.0162 130.471 77.1325 130.893 77.1986 131.324C77.3651 132.382 78.0127 132.943 79.0161 133.208C80.3821 133.568 81.7754 133.748 83.1665 133.949C87.3442 134.558 91.5287 135.089 95.7452 135.356C95.8706 135.363 95.996 135.36 96.1192 135.363C96.1192 135.37 96.1192 135.376 96.1192 135.383L96.1169 135.388Z" fill="#BE946C"/>
<path id="Vector_43" d="M38.6506 121.553C38.6233 123.32 38.6027 124.693 38.5822 126.066C38.5754 126.681 38.7783 127.226 39.1272 127.726C40.3837 129.516 41.7064 131.253 43.0883 132.952C43.6424 133.632 44.3539 134.036 45.2 134.257C47.1064 134.754 49.063 134.996 50.9831 135.429C52.2327 135.709 53.4961 135.928 54.7503 136.179C55.081 136.245 55.3546 136.291 55.4504 135.833C55.7446 134.421 55.9908 133.014 55.7354 131.564C55.5553 130.526 55.0901 129.664 54.2327 129.062C51.9887 127.482 49.5555 126.877 46.8761 127.796C45.8681 128.143 44.9103 128.597 44.0734 129.279C43.818 129.486 43.4988 129.842 43.1955 129.482C42.8967 129.121 43.2069 128.777 43.5011 128.528C44.3243 127.828 45.3117 127.436 46.3128 127.074C47.1976 126.754 47.1999 126.754 47.0722 125.801C47.022 125.429 46.9673 125.058 46.8897 124.693C46.7301 123.958 46.5158 123.277 45.7997 122.837C45.3527 122.561 45.0244 122.116 44.7712 121.637C44.6549 121.416 44.5455 121.19 44.5797 120.928C44.6025 120.755 44.6914 120.629 44.8488 120.579C45.0084 120.524 45.1703 120.574 45.2638 120.713C45.3687 120.866 45.4326 121.046 45.5283 121.208C45.9753 121.952 46.591 122.517 47.3914 122.857C48.1782 123.192 48.7483 122.88 48.8874 122.027C49.0128 121.279 48.8919 120.538 48.7506 119.797C48.5864 118.923 48.2215 118.132 47.8156 117.359C47.3299 116.424 46.4998 115.968 45.4713 115.863C44.7211 115.788 44.3585 116.098 44.281 116.844C44.2399 117.259 44.3585 117.649 44.5022 118.032C44.5865 118.26 44.5957 118.472 44.3539 118.593C44.0712 118.736 43.875 118.572 43.7291 118.346C43.5193 118.023 43.4486 117.646 43.4486 117.272C43.4486 116.885 43.2616 116.711 42.9081 116.643C41.7702 116.424 40.6277 116.264 39.4647 116.292C39.1113 116.299 38.963 116.378 38.8992 116.805C38.6483 118.513 38.7943 120.237 38.6483 121.553H38.6506Z" fill="#BE946C"/>
<path id="Vector_44" d="M76.0037 118.834C75.8213 118.408 75.502 118.244 75.2535 118.018C71.7485 114.853 67.9105 112.105 64.157 109.248C60.8025 106.696 57.3728 104.24 54.1209 101.556C53.8609 101.341 53.6124 101.116 53.211 101.159C52.0549 101.284 51.6581 102.121 52.3194 103.084C52.5885 103.469 52.9009 103.813 53.2475 104.133C55.2315 105.95 57.3363 107.615 59.4913 109.22C64.1707 112.712 69.0371 115.945 73.6526 119.525C74.0813 119.856 74.4097 119.977 74.8635 119.557C75.1759 119.265 75.5932 119.09 76.006 118.834H76.0037Z" fill="#7A4935"/>
<path id="Vector_45" d="M62.8685 112.746C62.0954 112.185 61.409 111.704 60.7432 111.195C60.4216 110.951 60.246 111.147 60.0294 111.341C58.8345 112.392 57.6167 113.418 56.3557 114.392C54.3922 115.909 52.3193 117.22 49.9158 117.94C49.2248 118.148 49.2362 118.182 49.4323 118.93C49.4711 119.081 49.5007 119.233 49.5372 119.386C49.8063 120.522 49.8154 120.551 50.9032 120.209C55.2063 118.855 58.9781 116.597 62.2231 113.469C62.4238 113.275 62.5971 113.054 62.8708 112.746H62.8685Z" fill="#7A4935"/>
<path id="Vector_46" d="M77.8417 133.862C77.9215 134.435 78.2202 134.904 78.4916 135.388C78.6786 135.721 79.0024 135.812 79.3399 135.91C80.6078 136.264 81.9031 136.471 83.2052 136.622C87.1116 137.075 90.9997 137.709 94.9174 138.07C95.3849 138.113 95.8524 138.122 96.3221 138.147C97.0815 138.186 97.6676 137.935 97.9686 137.187C98.0826 136.907 98.3289 136.685 98.3517 136.368C91.474 136.015 84.667 135.283 77.8417 133.865V133.862Z" fill="white"/>
<path id="Vector_47" d="M61.9997 97.2799C61.9929 97.7132 62.23 98.0576 62.4353 98.3996C63.6553 100.422 64.0543 102.627 63.9517 104.954C63.9198 105.674 63.8081 106.383 63.6188 107.074C63.5025 107.494 63.5869 107.786 63.9677 108.025C64.3098 108.24 64.6131 108.516 64.9437 108.753C65.4317 109.102 65.4591 109.088 65.7373 108.52C66.6472 106.662 66.8364 104.694 66.5719 102.675C66.3644 101.065 65.9813 99.4897 65.3815 97.9732C65.174 97.451 64.9391 96.9424 64.6359 96.4681C64.1273 95.6723 63.9061 95.5605 63.2152 95.7771C62.5288 95.9915 62.0043 96.6437 61.9997 97.2799Z" fill="#7A4935"/>
<path id="Vector_48" d="M38.06 116.538C37.312 116.734 37.0452 117.179 36.8993 117.76C36.507 119.327 36.4911 120.921 36.5777 122.513C36.6575 124.009 36.8377 125.498 36.9608 126.994C36.9859 127.283 37.0543 127.525 37.2618 127.751C39.1272 129.783 40.7988 131.979 42.3403 134.252C43.7222 136.291 45.599 137.141 47.941 137.303C49.7813 137.433 51.6102 137.723 53.455 137.773C53.7994 137.785 54.1437 137.773 54.4858 137.766C54.7822 137.759 54.9852 137.586 54.9875 137.315C54.992 137.023 54.6933 137.05 54.488 137.009C51.7561 136.473 49.0265 135.944 46.2968 135.408C45.8977 135.329 45.5032 135.233 45.1064 135.139C43.9343 134.868 42.9971 134.254 42.2468 133.306C40.9857 131.712 39.7543 130.097 38.5685 128.446C37.9619 127.603 37.6769 126.697 37.7156 125.641C37.7955 123.454 37.8205 121.268 37.8365 119.081C37.8433 118.267 37.9961 117.471 38.0577 116.54L38.06 116.538Z" fill="white"/>
<path id="Vector_49" d="M62.9324 102.206C62.9393 102.256 62.9484 102.308 62.9575 102.361L62.9484 102.21L62.9324 102.206Z" fill="white"/>
<path id="Vector_50" d="M100.124 62.205C98.7325 60.2575 96.7622 59.0147 94.3678 58.5518C93.1158 58.3078 91.8479 58.3055 90.5777 58.4035C89.718 58.4674 88.8765 58.6042 88.0442 58.7821C88.1445 59.0375 88.2289 59.2952 88.3042 59.5551C90.2265 59.1538 92.1763 58.9691 94.1329 59.3476C96.5592 59.8197 98.5911 61.0306 99.7701 63.2197C101.209 65.8878 101.184 68.7361 99.9365 71.4817C98.7872 74.0038 96.6482 75.5727 94.2401 76.8064C93.955 76.9546 93.7635 76.8954 93.597 76.5966C93.3689 76.1862 93.1021 75.7962 92.8308 75.4131C92.6369 75.1417 92.6461 74.9524 92.9516 74.7746C93.3347 74.5511 93.6996 74.3025 94.069 74.0631C96.1009 72.6538 97.4098 70.7633 97.8864 68.3324C98.3699 65.865 97.3049 63.5983 95.1385 62.335C93.955 61.6463 92.6871 61.3703 91.3234 61.4593C90.4409 61.5163 89.5926 61.7033 88.758 61.9473C88.7967 62.2164 88.8355 62.4877 88.8765 62.7568C89.1434 62.677 89.4124 62.6018 89.6838 62.5333C90.4569 62.3418 91.2482 62.2301 92.0463 62.2688C95.6152 62.4421 98.0005 65.3497 96.915 68.8934C96.3631 70.7063 95.3187 72.1544 93.7771 73.2467C93.4921 73.4542 93.2207 73.6845 92.9197 73.8647C92.0714 74.3709 92.0577 74.3664 91.369 73.68C90.694 73.0027 89.9734 72.4052 88.9746 72.2958C88.8765 72.2844 88.799 72.257 88.7374 72.216C88.6075 72.184 88.3201 72.1909 87.839 72.5877C87.8253 72.6378 87.7934 72.6857 87.7455 72.7382C87.5334 72.9594 87.3031 72.7701 87.091 72.7062C86.0625 72.4075 85.0135 72.2661 83.9463 72.3642C83.7593 72.3824 83.627 72.4052 83.5244 72.4121L83.5107 72.4349C83.5107 72.4349 83.2553 72.3345 81.8825 72.9913C81.8438 73.0095 81.8073 73.0255 81.7708 73.0415C81.0023 73.5386 80.382 74.1406 80.2817 75.0984C80.2315 75.5864 80.0103 75.8623 79.5998 76.1269C77.9944 77.1553 77.8052 78.9705 79.1187 80.3547C79.2167 80.4596 79.333 80.5577 79.4539 80.6421C79.7184 80.8336 79.7025 81.0047 79.5406 81.2988C78.8564 82.5508 79.2281 83.8369 80.4846 84.5324C80.9225 84.7764 81.1209 84.9498 81.0137 85.5221C80.7879 86.7285 81.4698 87.554 82.6966 87.7661C82.8357 87.7889 82.9885 87.7615 83.1368 87.7957C84.1607 87.7706 85.2233 87.4149 85.2233 87.4149C85.2233 87.4149 85.2256 87.4194 85.2302 87.424C85.3556 87.367 85.4879 87.3123 85.6315 87.2621C88.0556 86.4001 90.1399 85.1025 91.271 82.6215C91.2983 82.6283 91.3234 82.6351 91.3485 82.642C91.369 82.6488 91.3918 82.6557 91.4101 82.6625C91.5081 82.6944 91.5925 82.7309 91.6723 82.7743H91.6746C91.7157 82.7811 91.759 82.7971 91.8046 82.8153C92.0007 82.8928 92.2037 82.943 92.3975 82.9726C92.9015 82.8221 93.5195 82.6009 93.6996 82.5325C93.7019 82.5325 93.7019 82.5325 93.7019 82.5325C93.9892 82.3022 94.1397 81.951 94.2515 81.5839C94.5342 80.6603 94.5342 79.7322 94.329 78.7904C94.1078 77.7779 94.1169 77.7847 95.0656 77.2853C96.7006 76.4256 98.1122 75.2854 99.3436 73.9149C102.233 70.7018 102.279 65.2083 100.128 62.2027L100.124 62.205Z" fill="#42240C"/>
<path id="Vector_51" d="M82.7742 86.9451C83.3762 87.0569 83.9486 86.8904 84.5141 86.7422C86.5186 86.2109 88.3087 85.3033 89.677 83.6887C89.9233 83.3968 90.1581 83.0867 90.2995 82.7287C90.5048 82.2065 90.5413 81.7207 90.0829 81.2715C89.7728 80.9636 89.5447 80.5714 89.2779 80.2179C89.1342 80.0287 89.0157 79.8303 88.9746 79.5885C88.945 79.4084 88.929 79.2214 89.1046 79.1142C89.3235 78.9774 89.5014 79.1005 89.6314 79.2716C90.0054 79.7641 90.3725 80.2635 90.7351 80.7652C91.0475 81.1985 91.4032 81.593 91.832 81.9077C92.4682 82.3752 93.1934 82.138 93.4488 81.3878C93.6791 80.7059 93.7065 80.0059 93.5924 79.2944C93.3256 77.6137 92.5936 76.1679 91.4306 74.932C90.9244 74.3983 90.4569 73.826 89.8092 73.4428C88.7375 72.8089 87.9576 73.1829 87.8276 74.4189C87.7614 75.0688 87.8048 75.7141 88.0761 76.3253C88.1217 76.4325 88.1788 76.5374 88.2175 76.6468C88.2996 76.8612 88.2837 77.0641 88.0716 77.1873C87.8435 77.3195 87.6748 77.1873 87.5471 77.0117C87.3031 76.6719 87.1503 76.2911 87.0819 75.876C86.9793 75.2626 86.9428 74.6492 87.0522 74.0335C87.0956 73.7803 87.1252 73.5614 86.8037 73.4839C85.1983 73.0803 83.6065 72.8933 82.0923 73.8009C81.4173 74.2068 81.1939 74.599 81.1551 75.3584C81.52 75.3949 81.8415 75.2147 82.1881 75.1646C82.48 75.1212 82.7696 75.0574 83.0615 75.0369C83.3694 75.014 83.7137 75.0642 83.7411 75.4314C83.7616 75.762 83.4446 75.8122 83.1687 75.8418C82.163 75.9513 81.2053 76.2204 80.2885 76.6537C79.5657 76.9957 79.0868 77.5521 79.0913 78.3571C79.0936 79.2214 79.6067 79.8303 80.3364 80.2613C80.5257 80.3753 80.7195 80.3913 80.9293 80.3365C81.13 80.2864 81.3307 80.2248 81.5336 80.2065C81.8005 80.1815 82.1037 80.1792 82.1494 80.5304C82.1881 80.82 81.9532 80.9203 81.7092 80.9864C81.4265 81.064 81.1391 81.1392 80.87 81.2578C80.0445 81.6136 79.7914 82.3456 80.1996 83.1391C80.6306 83.9806 81.5222 84.2497 82.3272 83.7777C82.5575 83.6454 82.7765 83.4926 83.0547 83.4744C83.2508 83.4607 83.415 83.5268 83.4902 83.7024C83.5746 83.8917 83.4811 84.0536 83.3192 84.1516C83.0661 84.3067 82.8038 84.439 82.5507 84.5895C82.2178 84.7924 81.9487 85.0524 81.8369 85.4515C81.6271 86.2017 82.008 86.8038 82.7765 86.9429L82.7742 86.9451Z" fill="#42240C"/>
<path id="Vector_52" d="M91.7408 83.1141C91.7864 83.1209 91.8616 83.1095 91.9551 83.0912C91.7545 83.0981 91.645 83.1072 91.7408 83.1141Z" fill="white"/>
<path id="Vector_53" d="M81.1529 75.3584C81.5177 75.3949 81.8393 75.2147 82.1859 75.1645C82.4778 75.1235 82.7674 75.0574 83.0593 75.0368C83.3671 75.0117 83.7138 75.0619 83.7388 75.4313C83.7616 75.762 83.4424 75.8122 83.1665 75.8418C82.1631 75.9536 81.203 76.2226 80.2886 76.6536C79.5634 76.9957 79.0845 77.5521 79.0868 78.3571C79.0914 79.2214 79.6045 79.8302 80.3319 80.2612C80.5235 80.3753 80.7173 80.3912 80.9271 80.3365C81.1255 80.2863 81.3262 80.227 81.5291 80.2065C81.7982 80.1814 82.0992 80.1814 82.1471 80.5303C82.1836 80.8199 81.951 80.9203 81.7047 80.9864C81.4219 81.0639 81.1346 81.1392 80.8678 81.2555C80.04 81.6135 79.7892 82.3433 80.1951 83.1391C80.6261 83.9806 81.5177 84.2497 82.3227 83.7776C82.5507 83.6431 82.7697 83.4903 83.0479 83.4743C83.244 83.4607 83.4059 83.5268 83.4834 83.7024C83.5678 83.8917 83.4743 84.0513 83.3124 84.1516C83.0616 84.3067 82.797 84.439 82.5462 84.5895C82.211 84.7924 81.9419 85.0547 81.8324 85.4515C81.6226 86.2017 82.0034 86.8037 82.7719 86.9428C83.374 87.0546 83.9486 86.8881 84.5119 86.7399C86.5164 86.2086 88.3065 85.3032 89.6725 83.6887C89.921 83.3968 90.1536 83.0867 90.295 82.7286C90.498 82.2064 90.539 81.723 90.0784 81.2715C89.7682 80.9636 89.5379 80.5737 89.2734 80.2179C89.132 80.0286 89.0134 79.828 88.9701 79.5885C88.9405 79.4084 88.9245 79.2214 89.1001 79.1119C89.319 78.9774 89.4969 79.0982 89.6269 79.2715C89.9986 79.7641 90.3657 80.2612 90.7283 80.7652C91.0407 81.1985 91.3965 81.593 91.8252 81.9077C92.4614 82.3752 93.1866 82.1357 93.442 81.3855C93.6723 80.7036 93.6997 80.0036 93.5856 79.2921C93.3166 77.6114 92.5868 76.1656 91.4238 74.9297C90.9176 74.3938 90.4501 73.8237 89.8024 73.4405C88.7307 72.8066 87.9508 73.1806 87.8208 74.4143C87.7546 75.0642 87.798 75.7096 88.0693 76.3207C88.1172 76.4302 88.172 76.5328 88.213 76.6445C88.2928 76.8589 88.2769 77.0596 88.0648 77.185C87.839 77.315 87.6703 77.185 87.5403 77.0094C87.2963 76.6696 87.1435 76.2888 87.0751 75.876C86.9725 75.2603 86.936 74.6446 87.0454 74.0289C87.0888 73.7758 87.1184 73.5591 86.7969 73.4793C85.1915 73.0757 83.5997 72.8887 82.0855 73.7963C81.4105 74.2045 81.1871 74.5944 81.1506 75.3561L81.1529 75.3584Z" fill="white"/>
<path id="Vector_54" d="M99.7701 63.2197C98.5911 61.0306 96.5593 59.8174 94.1329 59.3476C92.174 58.9691 90.2266 59.1538 88.3042 59.5551C88.5231 60.3396 88.644 61.1446 88.758 61.9518C89.5926 61.7056 90.4409 61.5186 91.3234 61.4616C92.6871 61.3726 93.955 61.6485 95.1386 62.3395C97.3049 63.6006 98.3699 65.8673 97.8865 68.3347C97.4098 70.7633 96.1009 72.6584 94.069 74.0676C93.6996 74.3048 93.3325 74.5557 92.9516 74.7769C92.6461 74.9547 92.637 75.144 92.8308 75.4177C93.1022 75.7985 93.369 76.1907 93.597 76.6012C93.7635 76.8999 93.955 76.9569 94.2401 76.811C96.6482 75.5773 98.7872 74.0061 99.9343 71.4839C101.184 68.7406 101.209 65.8924 99.7701 63.222V63.2197Z" fill="#7A4935"/>
<path id="Vector_55" d="M32.0192 88.9063C31.5814 88.5186 31.6338 88.261 31.8299 87.8003C32.4023 86.4822 31.9075 85.2371 30.6008 84.6648C30.2929 84.5302 30.1743 84.4071 30.2678 84.0901C30.3089 83.951 30.3408 83.805 30.3568 83.6591C30.546 81.7618 29.2873 80.4437 27.3877 80.6056C26.8997 80.6467 26.5553 80.5646 26.2178 80.2111C25.5542 79.511 24.69 79.4153 23.7824 79.4905C23.7436 79.4996 23.7025 79.511 23.6615 79.5179C22.1724 79.8371 22.0333 80.072 22.0333 80.072L22.0059 80.0652C21.9215 80.1199 21.803 80.1838 21.6433 80.2841C20.738 80.8588 19.9946 81.6113 19.3629 82.4756C19.2329 82.6557 19.1691 82.9453 18.8635 82.8997C18.7951 82.8883 18.7404 82.8678 18.6993 82.8381C18.0768 82.8176 17.8419 82.9887 17.7598 83.0936C17.7347 83.162 17.6914 83.2327 17.6207 83.3011C16.8955 83.9966 16.6948 84.9088 16.574 85.8574C16.4508 86.8197 16.4394 86.8311 15.4589 86.9497C15.11 86.9908 14.7519 86.9748 14.4008 86.9862C12.5126 87.0615 10.8 86.5529 9.25388 85.4561C6.22549 83.3125 6.33267 79.5544 9.0532 77.2397C9.59366 76.7768 10.2002 76.4165 10.8433 76.1178C10.743 75.8692 10.6449 75.6184 10.5514 75.363C10.0611 75.591 9.58453 75.851 9.12845 76.1588C7.99281 76.9205 7.16046 77.9125 6.64509 79.1804C5.701 81.5018 6.2483 83.9441 8.13876 85.6043C10.0018 87.2348 12.1979 87.9349 14.6653 87.8094C15.1054 87.773 15.5455 87.7479 15.9856 87.6886C16.3368 87.643 16.4577 87.7866 16.4714 88.1219C16.4919 88.5893 16.5193 89.0637 16.5899 89.5266C16.6401 89.8641 16.5238 90.026 16.2068 90.0853C13.5479 90.5801 10.8958 90.644 8.43977 89.3487C5.77169 87.9371 4.00894 85.7001 3.51409 82.7082C3.11046 80.2567 3.97473 78.0561 5.6075 76.2022C6.80928 74.8385 8.29154 73.8533 9.88099 73.0392C9.80573 72.7793 9.72136 72.5193 9.61874 72.2662C9.01215 72.5717 8.41697 72.907 7.8423 73.2832C6.77735 73.9833 5.77625 74.7564 4.9325 75.7142C3.32025 77.543 2.52439 79.73 2.61333 82.1198C2.75015 85.8095 6.14568 90.1309 10.3986 90.9108C12.2161 91.2437 14.0291 91.2848 15.8488 90.9678C16.9024 90.7808 16.9069 90.7717 17.3539 91.7089C17.7666 92.5778 18.3322 93.3143 19.1235 93.8708C19.4382 94.0942 19.7711 94.279 20.1383 94.2858C20.1383 94.2858 20.1383 94.2858 20.1428 94.2858C20.3275 94.2311 20.9524 94.0304 21.4404 93.8411C21.5795 93.6975 21.7095 93.5355 21.8166 93.3531C21.8417 93.3098 21.8645 93.2733 21.8942 93.2414V93.2391C21.9284 93.157 21.9763 93.0749 22.0333 92.9905C22.0424 92.9746 22.0561 92.9563 22.0698 92.9358C22.0857 92.9153 22.1017 92.8947 22.1154 92.8742C24.5303 94.1467 26.9726 93.9004 29.4218 93.1023C29.5632 93.0567 29.7023 93.0179 29.8368 92.986C29.8368 92.9814 29.8368 92.9768 29.8368 92.9768C29.8368 92.9768 30.8972 92.6097 31.7227 92.0054C31.8208 91.8845 31.9553 91.8138 32.0511 91.7112C32.8949 90.7945 32.9268 89.725 32.0101 88.9086L32.0192 88.9063Z" fill="#42240C"/>
<path id="Vector_56" d="M31.4924 91.1069C31.0842 91.563 30.5278 91.7819 29.9919 92.0077C28.0809 92.8104 26.1061 93.1844 24.0355 92.742C23.6615 92.6622 23.2875 92.5618 22.9568 92.3634C22.4757 92.0761 22.1496 91.7158 22.2339 91.0773C22.2932 90.644 22.2339 90.1948 22.2271 89.7546C22.2248 89.5175 22.1952 89.2849 22.0812 89.0705C21.9968 88.9086 21.8942 88.7513 21.6912 88.7741C21.4335 88.8014 21.3697 89.0067 21.3719 89.2233C21.3765 89.839 21.3925 90.457 21.413 91.0773C21.4312 91.6109 21.3902 92.1422 21.2442 92.6508C21.0253 93.4101 20.307 93.6655 19.6457 93.2254C19.0459 92.8263 18.5967 92.2904 18.2501 91.6565C17.4314 90.1651 17.1258 88.5711 17.2923 86.8836C17.3653 86.1539 17.3858 85.4127 17.664 84.7172C18.1246 83.5588 18.973 83.3786 19.8281 84.2771C20.2774 84.7514 20.6377 85.2873 20.7996 85.9372C20.8292 86.0513 20.8497 86.1676 20.8839 86.2793C20.9501 86.5005 21.0846 86.6487 21.3286 86.6191C21.5909 86.5826 21.6433 86.3773 21.6365 86.1584C21.6228 85.7411 21.5111 85.3466 21.3127 84.9772C21.0185 84.4276 20.6719 83.9168 20.2089 83.4972C20.0174 83.3262 19.86 83.1711 20.0676 82.9134C21.0937 81.6136 22.2362 80.4916 23.9899 80.2864C24.7743 80.1974 25.1894 80.3708 25.6865 80.9477C25.4197 81.1985 25.0525 81.2533 24.7492 81.4266C24.4938 81.5702 24.2247 81.6957 23.9807 81.8576C23.723 82.0263 23.479 82.2772 23.6843 82.585C23.869 82.861 24.1495 82.7059 24.3912 82.5599C25.2532 82.0355 26.1768 81.6615 27.1665 81.4448C27.9486 81.2738 28.667 81.4243 29.1595 82.0605C29.6863 82.7469 29.6498 83.5428 29.3397 84.3295C29.2553 84.5348 29.1117 84.6648 28.9155 84.7537C28.7263 84.8335 28.5301 84.9088 28.3591 85.0182C28.1288 85.1619 27.8916 85.3443 28.0672 85.6522C28.2155 85.9053 28.4617 85.8415 28.6943 85.7457C28.9657 85.6339 29.2416 85.5176 29.5244 85.4469C30.3955 85.2257 31.0432 85.6476 31.2073 86.5279C31.3807 87.456 30.8402 88.2108 29.9144 88.3317C29.6498 88.3636 29.3853 88.3773 29.1527 88.5323C28.9908 88.6418 28.9019 88.7923 28.9497 88.9793C28.9976 89.1823 29.1709 89.2507 29.3602 89.2301C29.6544 89.2005 29.944 89.1435 30.2382 89.1093C30.6258 89.0637 30.9976 89.1093 31.3305 89.3533C31.953 89.8208 32.0215 90.5277 31.4992 91.1092L31.4924 91.1069Z" fill="#42240C"/>
<path id="Vector_57" d="M22.0515 93.5515C22.0173 93.5834 21.9534 93.6222 21.8668 93.6632C22.031 93.5446 22.1222 93.483 22.0515 93.5515Z" fill="white"/>
<path id="Vector_58" d="M25.6842 80.9477C25.4174 81.1985 25.0525 81.251 24.747 81.4243C24.4916 81.568 24.2247 81.6957 23.9785 81.8576C23.7208 82.0263 23.4768 82.2749 23.682 82.5827C23.8644 82.8587 24.1472 82.7036 24.3844 82.5599C25.2464 82.0332 26.1722 81.6615 27.1596 81.4448C27.9418 81.2738 28.6601 81.422 29.1527 82.0605C29.6772 82.7469 29.643 83.5428 29.3329 84.3295C29.2508 84.5348 29.1071 84.6648 28.9087 84.7537C28.7194 84.8358 28.5256 84.911 28.3523 85.0182C28.122 85.1619 27.8848 85.3466 28.0604 85.6522C28.2063 85.9053 28.4526 85.8414 28.6875 85.7434C28.9589 85.6316 29.2325 85.5176 29.5153 85.4447C30.3887 85.2235 31.0363 85.6476 31.1982 86.5256C31.3715 87.456 30.8311 88.2108 29.9052 88.3294C29.643 88.3636 29.3762 88.3773 29.1436 88.5323C28.9817 88.6418 28.895 88.7946 28.9406 88.9816C28.9908 89.1822 29.1618 89.2507 29.3534 89.2301C29.6453 89.2005 29.9349 89.1435 30.2268 89.1093C30.6167 89.0637 30.9884 89.1093 31.3191 89.3556C31.9439 89.8208 32.0123 90.5277 31.4901 91.1092C31.0797 91.5653 30.5232 91.7842 29.9873 92.0099C28.0741 92.8149 26.1038 93.1912 24.0332 92.7465C23.6592 92.6644 23.2852 92.5641 22.9523 92.368C22.4711 92.0806 22.1427 91.7181 22.2317 91.0795C22.2887 90.6485 22.2317 90.1993 22.2248 89.7569C22.2203 89.5197 22.1929 89.2894 22.0789 89.0728C21.9922 88.9109 21.8896 88.7535 21.6844 88.7763C21.429 88.8037 21.3651 89.0089 21.3651 89.2233C21.372 89.8413 21.3856 90.4593 21.4062 91.0773C21.4244 91.6109 21.3856 92.1422 21.2374 92.6507C21.0185 93.4101 20.3002 93.6655 19.6388 93.2254C19.0391 92.8286 18.5899 92.2904 18.2432 91.6565C17.4246 90.1651 17.119 88.5711 17.2855 86.8836C17.3562 86.1539 17.3767 85.4127 17.6549 84.7172C18.1178 83.5588 18.9638 83.3786 19.819 84.2771C20.2705 84.7514 20.6285 85.2896 20.7904 85.9372C20.8201 86.0512 20.8383 86.1675 20.8725 86.2793C20.9387 86.5005 21.0778 86.6464 21.3218 86.6168C21.5818 86.5826 21.6365 86.3751 21.6296 86.1584C21.6137 85.7388 21.5019 85.3466 21.3035 84.9772C21.0094 84.4276 20.6627 83.9168 20.1998 83.4972C20.0083 83.3262 19.8532 83.1711 20.0584 82.9111C21.0823 81.6113 22.2271 80.4916 23.9807 80.2864C24.7652 80.1974 25.1802 80.3707 25.6774 80.95L25.6842 80.9477Z" fill="white"/>
<path id="Vector_59" d="M15.9879 87.6863C15.5501 87.7456 15.1077 87.7684 14.6698 87.8094C12.1979 87.9349 10.0064 87.2348 8.14102 85.602C6.25056 83.9441 5.70554 81.5018 6.64735 79.1781C7.165 77.9125 7.99735 76.9205 9.13071 76.1565C9.58908 75.8487 10.0657 75.591 10.556 75.363C10.5286 75.29 10.5012 75.217 10.4762 75.1463C10.2322 74.4508 10.0908 73.7348 9.88781 73.0347C8.29609 73.8465 6.8161 74.8339 5.61433 76.1976C3.98155 78.0493 3.11728 80.2522 3.52091 82.7036C4.01576 85.6955 5.77851 87.9349 8.44659 89.3419C10.9003 90.6371 13.5524 90.5733 16.2137 90.0807C16.5306 90.0214 16.6447 89.8595 16.5968 89.5197C16.5261 89.0568 16.4987 88.5848 16.4782 88.115C16.4645 87.7821 16.3436 87.6361 15.9925 87.684L15.9879 87.6863Z" fill="#7A4935"/>
</g>
</svg>
