<svg xmlns="http://www.w3.org/2000/svg" xmlns:xlink="http://www.w3.org/1999/xlink" width="100" zoomAndPan="magnify" viewBox="0 0 75 74.999997" height="100" preserveAspectRatio="xMidYMid meet" version="1.0"><defs><g/><clipPath id="33c6fb20e3"><path d="M 4 37 L 10 37 L 10 42 L 4 42 Z M 4 37 " clip-rule="nonzero"/></clipPath><clipPath id="e562fba170"><path d="M -2.726562 42.671875 L 6.257812 35.898438 L 18.445312 52.070312 L 9.460938 58.84375 Z M -2.726562 42.671875 " clip-rule="nonzero"/></clipPath><clipPath id="af2f3fb820"><path d="M -2.726562 42.671875 L 6.257812 35.898438 L 18.445312 52.070312 L 9.460938 58.84375 Z M -2.726562 42.671875 " clip-rule="nonzero"/></clipPath><clipPath id="c7c164f117"><path d="M 5 42 L 10 42 L 10 45 L 5 45 Z M 5 42 " clip-rule="nonzero"/></clipPath><clipPath id="969fab8554"><path d="M -2.726562 42.671875 L 6.257812 35.898438 L 18.445312 52.070312 L 9.460938 58.84375 Z M -2.726562 42.671875 " clip-rule="nonzero"/></clipPath><clipPath id="d09aa861b5"><path d="M -2.726562 42.671875 L 6.257812 35.898438 L 18.445312 52.070312 L 9.460938 58.84375 Z M -2.726562 42.671875 " clip-rule="nonzero"/></clipPath><clipPath id="12d84a946c"><path d="M 2 41 L 5 41 L 5 43 L 2 43 Z M 2 41 " clip-rule="nonzero"/></clipPath><clipPath id="c2d117ce86"><path d="M -2.726562 42.671875 L 6.257812 35.898438 L 18.445312 52.070312 L 9.460938 58.84375 Z M -2.726562 42.671875 " clip-rule="nonzero"/></clipPath><clipPath id="30df101f5f"><path d="M -2.726562 42.671875 L 6.257812 35.898438 L 18.445312 52.070312 L 9.460938 58.84375 Z M -2.726562 42.671875 " clip-rule="nonzero"/></clipPath><clipPath id="e27165825a"><path d="M 0 45 L 9 45 L 9 48 L 0 48 Z M 0 45 " clip-rule="nonzero"/></clipPath><clipPath id="cd070781ec"><path d="M -2.726562 42.671875 L 6.257812 35.898438 L 18.445312 52.070312 L 9.460938 58.84375 Z M -2.726562 42.671875 " clip-rule="nonzero"/></clipPath><clipPath id="e9068874ea"><path d="M -2.726562 42.671875 L 6.257812 35.898438 L 18.445312 52.070312 L 9.460938 58.84375 Z M -2.726562 42.671875 " clip-rule="nonzero"/></clipPath><clipPath id="3527a7cf22"><path d="M 6 48 L 11 48 L 11 51 L 6 51 Z M 6 48 " clip-rule="nonzero"/></clipPath><clipPath id="9ceacf5a8d"><path d="M -2.726562 42.671875 L 6.257812 35.898438 L 18.445312 52.070312 L 9.460938 58.84375 Z M -2.726562 42.671875 " clip-rule="nonzero"/></clipPath><clipPath id="ceb64797c9"><path d="M -2.726562 42.671875 L 6.257812 35.898438 L 18.445312 52.070312 L 9.460938 58.84375 Z M -2.726562 42.671875 " clip-rule="nonzero"/></clipPath><clipPath id="84df22caa9"><path d="M 9 50 L 13 50 L 13 57 L 9 57 Z M 9 50 " clip-rule="nonzero"/></clipPath><clipPath id="b229d6cee0"><path d="M -2.726562 42.671875 L 6.257812 35.898438 L 18.445312 52.070312 L 9.460938 58.84375 Z M -2.726562 42.671875 " clip-rule="nonzero"/></clipPath><clipPath id="911c6e5c5c"><path d="M -2.726562 42.671875 L 6.257812 35.898438 L 18.445312 52.070312 L 9.460938 58.84375 Z M -2.726562 42.671875 " clip-rule="nonzero"/></clipPath><clipPath id="61943f7c6e"><path d="M 14 50 L 16 50 L 16 55 L 14 55 Z M 14 50 " clip-rule="nonzero"/></clipPath><clipPath id="5394ede436"><path d="M -2.726562 42.671875 L 6.257812 35.898438 L 18.445312 52.070312 L 9.460938 58.84375 Z M -2.726562 42.671875 " clip-rule="nonzero"/></clipPath><clipPath id="8435d844f4"><path d="M -2.726562 42.671875 L 6.257812 35.898438 L 18.445312 52.070312 L 9.460938 58.84375 Z M -2.726562 42.671875 " clip-rule="nonzero"/></clipPath><clipPath id="36f69e220b"><path d="M 67 31 L 74 31 L 74 35 L 67 35 Z M 67 31 " clip-rule="nonzero"/></clipPath><clipPath id="16a1424c5c"><path d="M 78.253906 26.503906 L 72.320312 36.0625 L 55.113281 25.382812 L 61.046875 15.824219 Z M 78.253906 26.503906 " clip-rule="nonzero"/></clipPath><clipPath id="08a302466b"><path d="M 78.253906 26.503906 L 72.320312 36.0625 L 55.113281 25.382812 L 61.046875 15.824219 Z M 78.253906 26.503906 " clip-rule="nonzero"/></clipPath><clipPath id="6a6971e3e1"><path d="M 66 28 L 71 28 L 71 31 L 66 31 Z M 66 28 " clip-rule="nonzero"/></clipPath><clipPath id="c52af92bf8"><path d="M 78.253906 26.503906 L 72.320312 36.0625 L 55.113281 25.382812 L 61.046875 15.824219 Z M 78.253906 26.503906 " clip-rule="nonzero"/></clipPath><clipPath id="91bfd1d65e"><path d="M 78.253906 26.503906 L 72.320312 36.0625 L 55.113281 25.382812 L 61.046875 15.824219 Z M 78.253906 26.503906 " clip-rule="nonzero"/></clipPath><clipPath id="8469dc5ba7"><path d="M 71 28 L 74 28 L 74 30 L 71 30 Z M 71 28 " clip-rule="nonzero"/></clipPath><clipPath id="bd09c17077"><path d="M 78.253906 26.503906 L 72.320312 36.0625 L 55.113281 25.382812 L 61.046875 15.824219 Z M 78.253906 26.503906 " clip-rule="nonzero"/></clipPath><clipPath id="9c6d41d401"><path d="M 78.253906 26.503906 L 72.320312 36.0625 L 55.113281 25.382812 L 61.046875 15.824219 Z M 78.253906 26.503906 " clip-rule="nonzero"/></clipPath><clipPath id="f1a702352f"><path d="M 66 23 L 74 23 L 74 28 L 66 28 Z M 66 23 " clip-rule="nonzero"/></clipPath><clipPath id="816c8a424b"><path d="M 78.253906 26.503906 L 72.320312 36.0625 L 55.113281 25.382812 L 61.046875 15.824219 Z M 78.253906 26.503906 " clip-rule="nonzero"/></clipPath><clipPath id="0c652d836c"><path d="M 78.253906 26.503906 L 72.320312 36.0625 L 55.113281 25.382812 L 61.046875 15.824219 Z M 78.253906 26.503906 " clip-rule="nonzero"/></clipPath><clipPath id="d1eb9a27b1"><path d="M 64 22 L 67 22 L 67 26 L 64 26 Z M 64 22 " clip-rule="nonzero"/></clipPath><clipPath id="a5d9dd5dfd"><path d="M 78.253906 26.503906 L 72.320312 36.0625 L 55.113281 25.382812 L 61.046875 15.824219 Z M 78.253906 26.503906 " clip-rule="nonzero"/></clipPath><clipPath id="2141b10a2c"><path d="M 78.253906 26.503906 L 72.320312 36.0625 L 55.113281 25.382812 L 61.046875 15.824219 Z M 78.253906 26.503906 " clip-rule="nonzero"/></clipPath><clipPath id="32fedd8b1e"><path d="M 60 17 L 63 17 L 63 25 L 60 25 Z M 60 17 " clip-rule="nonzero"/></clipPath><clipPath id="dd84b4ba2f"><path d="M 78.253906 26.503906 L 72.320312 36.0625 L 55.113281 25.382812 L 61.046875 15.824219 Z M 78.253906 26.503906 " clip-rule="nonzero"/></clipPath><clipPath id="3ef108d41f"><path d="M 78.253906 26.503906 L 72.320312 36.0625 L 55.113281 25.382812 L 61.046875 15.824219 Z M 78.253906 26.503906 " clip-rule="nonzero"/></clipPath><clipPath id="0b6e50785c"><path d="M 57 22 L 60 22 L 60 26 L 57 26 Z M 57 22 " clip-rule="nonzero"/></clipPath><clipPath id="8a5a4a8250"><path d="M 78.253906 26.503906 L 72.320312 36.0625 L 55.113281 25.382812 L 61.046875 15.824219 Z M 78.253906 26.503906 " clip-rule="nonzero"/></clipPath><clipPath id="479422b165"><path d="M 78.253906 26.503906 L 72.320312 36.0625 L 55.113281 25.382812 L 61.046875 15.824219 Z M 78.253906 26.503906 " clip-rule="nonzero"/></clipPath></defs><g clip-path="url(#33c6fb20e3)"><g clip-path="url(#e562fba170)"><g clip-path="url(#af2f3fb820)"><path fill="#ff914d" d="M 9.578125 41.066406 C 9.304688 41.496094 7.1875 40.851562 5.566406 39.824219 C 3.941406 38.792969 4.09375 38.1875 4.367188 37.761719 C 4.644531 37.335938 5.132812 36.945312 6.746094 37.96875 C 8.363281 38.992188 9.859375 40.648438 9.578125 41.066406 Z M 9.578125 41.066406 " fill-opacity="1" fill-rule="nonzero"/></g></g></g><g clip-path="url(#c7c164f117)"><g clip-path="url(#969fab8554)"><g clip-path="url(#d09aa861b5)"><path fill="#ff914d" d="M 9.863281 43.855469 C 9.757812 44.191406 8.292969 44.175781 7.089844 43.890625 C 5.886719 43.601562 5.902344 43.273438 5.886719 42.902344 C 5.871094 42.671875 5.964844 42.507812 6.175781 42.40625 C 6.601562 42.261719 7.023438 42.261719 7.445312 42.410156 C 8.738281 42.707031 9.964844 43.503906 9.863281 43.855469 Z M 9.863281 43.855469 " fill-opacity="1" fill-rule="nonzero"/></g></g></g><g clip-path="url(#12d84a946c)"><g clip-path="url(#c2d117ce86)"><g clip-path="url(#30df101f5f)"><path fill="#ff914d" d="M 4.304688 42.371094 C 4.257812 42.621094 3.480469 42.777344 2.824219 42.652344 C 2.164062 42.523438 2.15625 42.234375 2.203125 41.984375 C 2.253906 41.730469 2.378906 41.457031 3.027344 41.574219 C 3.679688 41.691406 4.355469 42.121094 4.304688 42.371094 Z M 4.304688 42.371094 " fill-opacity="1" fill-rule="nonzero"/></g></g></g><g clip-path="url(#e27165825a)"><g clip-path="url(#cd070781ec)"><g clip-path="url(#e9068874ea)"><path fill="#ff914d" d="M 8.53125 45.929688 C 8.59375 46.429688 6.054688 47.375 3.691406 47.707031 C 1.324219 48.039062 0.992188 47.5 0.941406 46.988281 C 0.886719 46.480469 1.046875 45.871094 3.410156 45.546875 C 5.777344 45.222656 8.464844 45.425781 8.53125 45.929688 Z M 8.53125 45.929688 " fill-opacity="1" fill-rule="nonzero"/></g></g></g><g clip-path="url(#3527a7cf22)"><g clip-path="url(#9ceacf5a8d)"><g clip-path="url(#ceb64797c9)"><path fill="#ff914d" d="M 10.027344 48.398438 C 10.160156 48.613281 9.117188 49.597656 8.046875 50.261719 C 6.972656 50.921875 6.703125 50.75 6.5625 50.539062 C 6.425781 50.328125 6.390625 50.003906 7.46875 49.335938 C 8.546875 48.671875 9.894531 48.183594 10.027344 48.398438 Z M 10.027344 48.398438 " fill-opacity="1" fill-rule="nonzero"/></g></g></g><g clip-path="url(#84df22caa9)"><g clip-path="url(#b229d6cee0)"><g clip-path="url(#911c6e5c5c)"><path fill="#ff914d" d="M 12.316406 50.234375 C 12.792969 50.402344 12.519531 52.863281 11.773438 54.90625 C 11.03125 56.949219 10.410156 56.957031 9.921875 56.800781 C 9.433594 56.640625 8.972656 56.222656 9.707031 54.167969 C 10.445312 52.113281 11.832031 50.054688 12.316406 50.234375 Z M 12.316406 50.234375 " fill-opacity="1" fill-rule="nonzero"/></g></g></g><g clip-path="url(#61943f7c6e)"><g clip-path="url(#5394ede436)"><g clip-path="url(#8435d844f4)"><path fill="#ff914d" d="M 14.65625 50.210938 C 14.960938 50.167969 15.488281 51.4375 15.648438 52.621094 C 15.8125 53.804688 15.488281 54 15.175781 54.03125 C 14.863281 54.058594 14.511719 54 14.347656 52.8125 C 14.183594 51.625 14.351562 50.25 14.65625 50.210938 Z M 14.65625 50.210938 " fill-opacity="1" fill-rule="nonzero"/></g></g></g><g fill="#ff914d" fill-opacity="0.4"><g transform="translate(13.990494, 40.804697)"><g><path d="M 5.152344 -11.601562 C 4.695312 -11.601562 2.753906 -11.769531 1.542969 -11.769531 C 1.085938 -11.769531 0.792969 -11.746094 0.792969 -11.683594 C 0.792969 -11.683594 0.792969 -11.664062 0.8125 -11.664062 L 0.8125 -11.308594 C 0.8125 -10.953125 0.792969 -10.515625 0.792969 -10.183594 L 0.792969 -9.660156 C 0.792969 -8.910156 0.773438 -8.179688 0.773438 -7.492188 L 0.773438 -5.152344 C 0.773438 -4.863281 0.855469 -4.089844 0.855469 -3.753906 L 0.855469 -3.609375 C 0.855469 -3.464844 0.835938 -3.359375 0.835938 -3.214844 L 0.835938 1 C 0.835938 1.523438 0.855469 1.917969 0.855469 2.441406 C 0.855469 3.421875 0.835938 4.671875 0.625 5.402344 C 0.667969 5.445312 0.710938 5.488281 0.773438 5.488281 C 0.875 5.488281 1.023438 5.425781 1.1875 5.425781 C 1.335938 5.425781 1.441406 5.445312 1.585938 5.445312 C 1.960938 5.445312 2.421875 5.382812 2.816406 5.382812 L 6.382812 5.570312 L 8.117188 5.570312 C 8.449219 5.570312 8.660156 5.550781 8.824219 5.550781 L 9.429688 5.550781 C 9.578125 5.550781 10.808594 5.507812 11.183594 5.507812 L 11.203125 2.105469 C 10.265625 2.105469 8.785156 2.042969 8.574219 2.042969 L 7.992188 2.042969 L 7.554688 2.023438 L 6.738281 2.023438 C 6.550781 2.023438 6.363281 2.066406 6.195312 2.105469 C 5.882812 2.105469 5.65625 2.066406 5.425781 2.066406 L 5.132812 2.066406 L 5.089844 0.730469 L 5.195312 -1.167969 L 5.195312 -1.542969 C 5.300781 -2.335938 5.089844 -3.171875 5.152344 -3.945312 Z M 5.152344 -11.601562 "/></g></g></g><g fill="#ff914d" fill-opacity="0.4"><g transform="translate(20.12459, 40.804697)"><g><path d="M 8.199219 -12.144531 C 6.34375 -12.144531 4.839844 -11.914062 3.378906 -11.683594 L 2.648438 -11.453125 C 1.710938 -11.164062 1.230469 -10.640625 1.105469 -10.183594 L 0.898438 -9.617188 C 0.460938 -6.738281 0.394531 -5.78125 0.394531 -4.820312 L 0.394531 -4.214844 L 0.417969 -3.589844 C 0.4375 -3.066406 0.542969 -1.917969 0.8125 -1.441406 L 0.9375 -1.125 C 1.730469 0.230469 2.503906 1.605469 6.863281 1.605469 C 10.328125 1.605469 12.851562 0.980469 13.164062 -2.105469 L 13.164062 -2.523438 C 13.164062 -3.066406 13.226562 -3.609375 13.226562 -4.152344 C 13.226562 -4.339844 13.207031 -4.546875 13.207031 -4.695312 L 13.207031 -5.300781 L 12.976562 -8.679688 C 12.957031 -8.910156 12.914062 -9.078125 12.875 -9.265625 L 12.769531 -9.597656 C 12.476562 -10.535156 11.746094 -11.582031 10.765625 -11.832031 L 10.578125 -11.871094 C 9.617188 -12.082031 9.492188 -12.144531 8.199219 -12.144531 Z M 7.761719 -8.679688 C 8.699219 -8.679688 9.015625 -8.386719 9.015625 -7.84375 L 9.097656 -5.027344 L 9.265625 -3.277344 C 9.265625 -2.628906 8.972656 -1.691406 7.492188 -1.691406 L 6.824219 -1.691406 C 5.527344 -1.691406 5.613281 -3.191406 5.613281 -4.632812 L 5.613281 -4.882812 C 5.507812 -6.15625 5.425781 -8.722656 6.675781 -8.742188 Z M 7.761719 -8.679688 "/></g></g></g><g fill="#ff914d" fill-opacity="0.4"><g transform="translate(34.041064, 40.804697)"><g><path d="M 8.492188 -12.246094 C 6.09375 -12.246094 1.710938 -11.871094 1.0625 -9.304688 L 0.898438 -8.847656 C 0.773438 -8.492188 0.667969 -8.136719 0.625 -7.804688 C 0.460938 -5.613281 0.460938 -5.363281 0.460938 -5.089844 L 0.460938 -4.464844 C 0.460938 -3.089844 0.667969 -1.816406 0.980469 -1.0625 L 1.1875 -0.730469 C 3.527344 2.171875 5.070312 2.171875 7.96875 2.171875 L 8.386719 2.171875 C 9.347656 2.171875 10.328125 0.980469 10.410156 0.207031 C 10.410156 0.4375 10.433594 0.710938 10.453125 0.960938 L 10.515625 2.503906 C 10.515625 2.734375 10.535156 3.003906 10.535156 3.234375 C 12.269531 3.171875 13.75 3.027344 15.542969 3.027344 C 15.542969 2.941406 15.566406 2.835938 15.566406 2.734375 L 15.355469 -4.484375 C 14 -4.484375 11.851562 -4.402344 10.265625 -4.402344 L 8.324219 -4.402344 C 8.074219 -4.402344 7.84375 -4.402344 7.617188 -4.359375 C 7.554688 -4.109375 7.53125 -3.839844 7.53125 -3.527344 L 7.53125 -1.960938 C 7.636719 -1.878906 7.824219 -1.835938 8.074219 -1.835938 C 8.449219 -1.835938 8.742188 -1.878906 9.097656 -1.878906 C 9.097656 -1.148438 9.035156 -1.167969 8.136719 -0.917969 L 7.199219 -0.773438 C 5.800781 -0.773438 5.800781 -1.566406 5.675781 -3.546875 C 5.695312 -3.503906 5.695312 -3.464844 5.695312 -3.421875 C 5.695312 -4.945312 5.71875 -6.636719 6.238281 -7.96875 L 6.550781 -8.617188 C 7.03125 -9.160156 7.574219 -9.453125 8.285156 -9.328125 L 8.929688 -9.328125 C 9.765625 -9.328125 9.972656 -8.847656 9.972656 -8.304688 L 10.058594 -6.46875 C 10.058594 -6.300781 13.207031 -5.988281 14.648438 -5.988281 C 15.167969 -5.988281 15.480469 -6.132812 15.480469 -6.71875 C 15.480469 -7.949219 15.398438 -9.078125 15.042969 -10.140625 L 14.855469 -10.535156 C 14.292969 -11.707031 12.726562 -12.101562 11.183594 -12.207031 L 10.390625 -12.226562 C 10.097656 -12.246094 9.679688 -12.246094 9.328125 -12.246094 Z M 8.492188 -12.246094 "/></g></g></g><g fill="#ff914d" fill-opacity="0.4"><g transform="translate(50.377799, 40.804697)"><g><path d="M 8.199219 -12.144531 C 6.34375 -12.144531 4.839844 -11.914062 3.378906 -11.683594 L 2.648438 -11.453125 C 1.710938 -11.164062 1.230469 -10.640625 1.105469 -10.183594 L 0.898438 -9.617188 C 0.460938 -6.738281 0.394531 -5.78125 0.394531 -4.820312 L 0.394531 -4.214844 L 0.417969 -3.589844 C 0.4375 -3.066406 0.542969 -1.917969 0.8125 -1.441406 L 0.9375 -1.125 C 1.730469 0.230469 2.503906 1.605469 6.863281 1.605469 C 10.328125 1.605469 12.851562 0.980469 13.164062 -2.105469 L 13.164062 -2.523438 C 13.164062 -3.066406 13.226562 -3.609375 13.226562 -4.152344 C 13.226562 -4.339844 13.207031 -4.546875 13.207031 -4.695312 L 13.207031 -5.300781 L 12.976562 -8.679688 C 12.957031 -8.910156 12.914062 -9.078125 12.875 -9.265625 L 12.769531 -9.597656 C 12.476562 -10.535156 11.746094 -11.582031 10.765625 -11.832031 L 10.578125 -11.871094 C 9.617188 -12.082031 9.492188 -12.144531 8.199219 -12.144531 Z M 7.761719 -8.679688 C 8.699219 -8.679688 9.015625 -8.386719 9.015625 -7.84375 L 9.097656 -5.027344 L 9.265625 -3.277344 C 9.265625 -2.628906 8.972656 -1.691406 7.492188 -1.691406 L 6.824219 -1.691406 C 5.527344 -1.691406 5.613281 -3.191406 5.613281 -4.632812 L 5.613281 -4.882812 C 5.507812 -6.15625 5.425781 -8.722656 6.675781 -8.742188 Z M 7.761719 -8.679688 "/></g></g></g><g fill="#ff914d" fill-opacity="1"><g transform="translate(13.068324, 39.882527)"><g><path d="M 5.152344 -11.601562 C 4.695312 -11.601562 2.753906 -11.769531 1.542969 -11.769531 C 1.085938 -11.769531 0.792969 -11.746094 0.792969 -11.683594 C 0.792969 -11.683594 0.792969 -11.664062 0.8125 -11.664062 L 0.8125 -11.308594 C 0.8125 -10.953125 0.792969 -10.515625 0.792969 -10.183594 L 0.792969 -9.660156 C 0.792969 -8.910156 0.773438 -8.179688 0.773438 -7.492188 L 0.773438 -5.152344 C 0.773438 -4.863281 0.855469 -4.089844 0.855469 -3.753906 L 0.855469 -3.609375 C 0.855469 -3.464844 0.835938 -3.359375 0.835938 -3.214844 L 0.835938 1 C 0.835938 1.523438 0.855469 1.917969 0.855469 2.441406 C 0.855469 3.421875 0.835938 4.671875 0.625 5.402344 C 0.667969 5.445312 0.710938 5.488281 0.773438 5.488281 C 0.875 5.488281 1.023438 5.425781 1.1875 5.425781 C 1.335938 5.425781 1.441406 5.445312 1.585938 5.445312 C 1.960938 5.445312 2.421875 5.382812 2.816406 5.382812 L 6.382812 5.570312 L 8.117188 5.570312 C 8.449219 5.570312 8.660156 5.550781 8.824219 5.550781 L 9.429688 5.550781 C 9.578125 5.550781 10.808594 5.507812 11.183594 5.507812 L 11.203125 2.105469 C 10.265625 2.105469 8.785156 2.042969 8.574219 2.042969 L 7.992188 2.042969 L 7.554688 2.023438 L 6.738281 2.023438 C 6.550781 2.023438 6.363281 2.066406 6.195312 2.105469 C 5.882812 2.105469 5.65625 2.066406 5.425781 2.066406 L 5.132812 2.066406 L 5.089844 0.730469 L 5.195312 -1.167969 L 5.195312 -1.542969 C 5.300781 -2.335938 5.089844 -3.171875 5.152344 -3.945312 Z M 5.152344 -11.601562 "/></g></g></g><g fill="#ff914d" fill-opacity="1"><g transform="translate(19.20242, 39.882527)"><g><path d="M 8.199219 -12.144531 C 6.34375 -12.144531 4.839844 -11.914062 3.378906 -11.683594 L 2.648438 -11.453125 C 1.710938 -11.164062 1.230469 -10.640625 1.105469 -10.183594 L 0.898438 -9.617188 C 0.460938 -6.738281 0.394531 -5.78125 0.394531 -4.820312 L 0.394531 -4.214844 L 0.417969 -3.589844 C 0.4375 -3.066406 0.542969 -1.917969 0.8125 -1.441406 L 0.9375 -1.125 C 1.730469 0.230469 2.503906 1.605469 6.863281 1.605469 C 10.328125 1.605469 12.851562 0.980469 13.164062 -2.105469 L 13.164062 -2.523438 C 13.164062 -3.066406 13.226562 -3.609375 13.226562 -4.152344 C 13.226562 -4.339844 13.207031 -4.546875 13.207031 -4.695312 L 13.207031 -5.300781 L 12.976562 -8.679688 C 12.957031 -8.910156 12.914062 -9.078125 12.875 -9.265625 L 12.769531 -9.597656 C 12.476562 -10.535156 11.746094 -11.582031 10.765625 -11.832031 L 10.578125 -11.871094 C 9.617188 -12.082031 9.492188 -12.144531 8.199219 -12.144531 Z M 7.761719 -8.679688 C 8.699219 -8.679688 9.015625 -8.386719 9.015625 -7.84375 L 9.097656 -5.027344 L 9.265625 -3.277344 C 9.265625 -2.628906 8.972656 -1.691406 7.492188 -1.691406 L 6.824219 -1.691406 C 5.527344 -1.691406 5.613281 -3.191406 5.613281 -4.632812 L 5.613281 -4.882812 C 5.507812 -6.15625 5.425781 -8.722656 6.675781 -8.742188 Z M 7.761719 -8.679688 "/></g></g></g><g fill="#ff914d" fill-opacity="1"><g transform="translate(33.118894, 39.882527)"><g><path d="M 8.492188 -12.246094 C 6.09375 -12.246094 1.710938 -11.871094 1.0625 -9.304688 L 0.898438 -8.847656 C 0.773438 -8.492188 0.667969 -8.136719 0.625 -7.804688 C 0.460938 -5.613281 0.460938 -5.363281 0.460938 -5.089844 L 0.460938 -4.464844 C 0.460938 -3.089844 0.667969 -1.816406 0.980469 -1.0625 L 1.1875 -0.730469 C 3.527344 2.171875 5.070312 2.171875 7.96875 2.171875 L 8.386719 2.171875 C 9.347656 2.171875 10.328125 0.980469 10.410156 0.207031 C 10.410156 0.4375 10.433594 0.710938 10.453125 0.960938 L 10.515625 2.503906 C 10.515625 2.734375 10.535156 3.003906 10.535156 3.234375 C 12.269531 3.171875 13.75 3.027344 15.542969 3.027344 C 15.542969 2.941406 15.566406 2.835938 15.566406 2.734375 L 15.355469 -4.484375 C 14 -4.484375 11.851562 -4.402344 10.265625 -4.402344 L 8.324219 -4.402344 C 8.074219 -4.402344 7.84375 -4.402344 7.617188 -4.359375 C 7.554688 -4.109375 7.53125 -3.839844 7.53125 -3.527344 L 7.53125 -1.960938 C 7.636719 -1.878906 7.824219 -1.835938 8.074219 -1.835938 C 8.449219 -1.835938 8.742188 -1.878906 9.097656 -1.878906 C 9.097656 -1.148438 9.035156 -1.167969 8.136719 -0.917969 L 7.199219 -0.773438 C 5.800781 -0.773438 5.800781 -1.566406 5.675781 -3.546875 C 5.695312 -3.503906 5.695312 -3.464844 5.695312 -3.421875 C 5.695312 -4.945312 5.71875 -6.636719 6.238281 -7.96875 L 6.550781 -8.617188 C 7.03125 -9.160156 7.574219 -9.453125 8.285156 -9.328125 L 8.929688 -9.328125 C 9.765625 -9.328125 9.972656 -8.847656 9.972656 -8.304688 L 10.058594 -6.46875 C 10.058594 -6.300781 13.207031 -5.988281 14.648438 -5.988281 C 15.167969 -5.988281 15.480469 -6.132812 15.480469 -6.71875 C 15.480469 -7.949219 15.398438 -9.078125 15.042969 -10.140625 L 14.855469 -10.535156 C 14.292969 -11.707031 12.726562 -12.101562 11.183594 -12.207031 L 10.390625 -12.226562 C 10.097656 -12.246094 9.679688 -12.246094 9.328125 -12.246094 Z M 8.492188 -12.246094 "/></g></g></g><g fill="#ff914d" fill-opacity="1"><g transform="translate(49.455629, 39.882527)"><g><path d="M 8.199219 -12.144531 C 6.34375 -12.144531 4.839844 -11.914062 3.378906 -11.683594 L 2.648438 -11.453125 C 1.710938 -11.164062 1.230469 -10.640625 1.105469 -10.183594 L 0.898438 -9.617188 C 0.460938 -6.738281 0.394531 -5.78125 0.394531 -4.820312 L 0.394531 -4.214844 L 0.417969 -3.589844 C 0.4375 -3.066406 0.542969 -1.917969 0.8125 -1.441406 L 0.9375 -1.125 C 1.730469 0.230469 2.503906 1.605469 6.863281 1.605469 C 10.328125 1.605469 12.851562 0.980469 13.164062 -2.105469 L 13.164062 -2.523438 C 13.164062 -3.066406 13.226562 -3.609375 13.226562 -4.152344 C 13.226562 -4.339844 13.207031 -4.546875 13.207031 -4.695312 L 13.207031 -5.300781 L 12.976562 -8.679688 C 12.957031 -8.910156 12.914062 -9.078125 12.875 -9.265625 L 12.769531 -9.597656 C 12.476562 -10.535156 11.746094 -11.582031 10.765625 -11.832031 L 10.578125 -11.871094 C 9.617188 -12.082031 9.492188 -12.144531 8.199219 -12.144531 Z M 7.761719 -8.679688 C 8.699219 -8.679688 9.015625 -8.386719 9.015625 -7.84375 L 9.097656 -5.027344 L 9.265625 -3.277344 C 9.265625 -2.628906 8.972656 -1.691406 7.492188 -1.691406 L 6.824219 -1.691406 C 5.527344 -1.691406 5.613281 -3.191406 5.613281 -4.632812 L 5.613281 -4.882812 C 5.507812 -6.15625 5.425781 -8.722656 6.675781 -8.742188 Z M 7.761719 -8.679688 "/></g></g></g><g clip-path="url(#36f69e220b)"><g clip-path="url(#16a1424c5c)"><g clip-path="url(#08a302466b)"><path fill="#ff914d" d="M 67.359375 32.441406 C 67.460938 31.945312 69.664062 31.777344 71.550781 32.152344 C 73.433594 32.527344 73.511719 33.144531 73.410156 33.640625 C 73.304688 34.136719 72.992188 34.679688 71.117188 34.308594 C 69.238281 33.941406 67.246094 32.933594 67.359375 32.441406 Z M 67.359375 32.441406 " fill-opacity="1" fill-rule="nonzero"/></g></g></g><g clip-path="url(#6a6971e3e1)"><g clip-path="url(#c52af92bf8)"><g clip-path="url(#91bfd1d65e)"><path fill="#ff914d" d="M 66.085938 29.945312 C 66.058594 29.59375 67.433594 29.078125 68.660156 28.910156 C 69.886719 28.746094 69.988281 29.054688 70.140625 29.394531 C 70.238281 29.605469 70.207031 29.792969 70.046875 29.964844 C 69.703125 30.253906 69.308594 30.40625 68.859375 30.421875 C 67.550781 30.609375 66.121094 30.308594 66.085938 29.945312 Z M 66.085938 29.945312 " fill-opacity="1" fill-rule="nonzero"/></g></g></g><g clip-path="url(#8469dc5ba7)"><g clip-path="url(#bd09c17077)"><g clip-path="url(#9c6d41d401)"><path fill="#ff914d" d="M 71.804688 29.320312 C 71.757812 29.074219 72.425781 28.644531 73.085938 28.523438 C 73.746094 28.40625 73.859375 28.675781 73.902344 28.925781 C 73.949219 29.175781 73.933594 29.476562 73.28125 29.601562 C 72.632812 29.726562 71.847656 29.570312 71.804688 29.320312 Z M 71.804688 29.320312 " fill-opacity="1" fill-rule="nonzero"/></g></g></g><g clip-path="url(#f1a702352f)"><g clip-path="url(#816c8a424b)"><g clip-path="url(#0c652d836c)"><path fill="#ff914d" d="M 66.582031 27.53125 C 66.339844 27.085938 68.367188 25.285156 70.449219 24.121094 C 72.535156 22.960938 73.039062 23.34375 73.273438 23.800781 C 73.507812 24.253906 73.578125 24.878906 71.492188 26.035156 C 69.402344 27.195312 66.824219 27.976562 66.582031 27.53125 Z M 66.582031 27.53125 " fill-opacity="1" fill-rule="nonzero"/></g></g></g><g clip-path="url(#d1eb9a27b1)"><g clip-path="url(#a5d9dd5dfd)"><g clip-path="url(#2141b10a2c)"><path fill="#ff914d" d="M 64.292969 25.769531 C 64.089844 25.617188 64.707031 24.320312 65.46875 23.316406 C 66.226562 22.3125 66.542969 22.375 66.75 22.519531 C 66.953125 22.667969 67.105469 22.957031 66.339844 23.96875 C 65.574219 24.980469 64.492188 25.921875 64.292969 25.769531 Z M 64.292969 25.769531 " fill-opacity="1" fill-rule="nonzero"/></g></g></g><g clip-path="url(#32fedd8b1e)"><g clip-path="url(#dd84b4ba2f)"><g clip-path="url(#3ef108d41f)"><path fill="#ff914d" d="M 61.496094 24.882812 C 60.988281 24.898438 60.355469 22.503906 60.3125 20.332031 C 60.269531 18.15625 60.839844 17.925781 61.355469 17.898438 C 61.867188 17.871094 62.449219 18.089844 62.503906 20.273438 C 62.5625 22.453125 62.011719 24.875 61.496094 24.882812 Z M 61.496094 24.882812 " fill-opacity="1" fill-rule="nonzero"/></g></g></g><g clip-path="url(#0b6e50785c)"><g clip-path="url(#8a5a4a8250)"><g clip-path="url(#479422b165)"><path fill="#ff914d" d="M 59.320312 25.746094 C 59.054688 25.898438 58.101562 24.90625 57.523438 23.859375 C 56.945312 22.8125 57.175781 22.515625 57.457031 22.375 C 57.738281 22.234375 58.089844 22.164062 58.667969 23.210938 C 59.25 24.261719 59.59375 25.601562 59.320312 25.746094 Z M 59.320312 25.746094 " fill-opacity="1" fill-rule="nonzero"/></g></g></g></svg>